<?xml version="1.0" encoding="UTF-8"?>
<svg id="_レイヤー_1" data-name="レイヤー 1" xmlns="http://www.w3.org/2000/svg" viewBox="0 0 391.83 115.22">
  <defs>
    <style>
      .cls-1 {
        stroke: #fff;
      }

      .cls-1, .cls-2 {
        fill: none;
      }

      .cls-1, .cls-2, .cls-3 {
        stroke-miterlimit: 10;
      }

      .cls-2 {
        stroke-width: .9px;
      }

      .cls-2, .cls-3 {
        stroke: #040000;
        stroke-linecap: square;
      }

      .cls-4, .cls-3 {
        fill: #040000;
        stroke-width: 0px;
      }

      .cls-3 {
        fill-rule: evenodd;
      }
    </style>
  </defs>
  <rect class="cls-1" x=".5" y=".5" width="390.83" height="114.22"/>
  <g>
    <path class="cls-4" d="m83.74,25.19l2.7-7.85h1.31l2.7,7.85h-1.12l-.73-2.19h-3.06l-.73,2.19h-1.07Zm4.56-3.08l-1.24-3.7-1.23,3.7h2.47Z"/>
    <path class="cls-4" d="m90.03,94.78c0,.39-.08.74-.23,1.03s-.35.54-.61.74c-.3.23-.62.4-.97.49s-.79.14-1.33.14h-2.29v-7.85h2.12c.57,0,1,.02,1.28.06s.56.12.82.26c.29.15.5.35.63.59s.2.53.2.86c0,.37-.1.7-.3.99-.2.29-.47.52-.82.69v.04c.48.13.85.36,1.11.69.26.34.39.75.39,1.26Zm-1.48-3.52c0-.19-.03-.35-.1-.49s-.17-.25-.31-.33c-.17-.1-.36-.15-.58-.17-.21-.02-.5-.03-.88-.03h-1.02v2.3h1.21c.33,0,.58-.02.74-.05.16-.03.32-.1.49-.21.16-.1.28-.24.34-.4.07-.17.1-.37.1-.61Zm.38,3.56c0-.29-.04-.54-.13-.73-.09-.19-.26-.35-.52-.49-.17-.09-.35-.14-.55-.17s-.48-.04-.85-.04h-1.21v2.9h.86c.47,0,.83-.02,1.1-.06.27-.04.51-.13.71-.27.2-.14.35-.29.44-.47.09-.17.14-.4.14-.68Z"/>
    <path class="cls-4" d="m321.18,62.99h-1.22l-1.95-3.14-1.98,3.14h-1.15l2.54-3.93-2.47-3.92h1.21l1.91,3.08,1.94-3.08h1.16l-2.5,3.87,2.51,3.98Z"/>
    <path class="cls-4" d="m236.85,25.19l2.7-7.85h1.31l2.7,7.85h-1.12l-.73-2.19h-3.06l-.73,2.19h-1.07Zm4.56-3.08l-1.24-3.7-1.23,3.7h2.47Z"/>
    <path class="cls-4" d="m246.97,19.03v1.81h-1.85v-1.81h1.85Z"/>
    <path class="cls-4" d="m255.06,22.78c0,.39-.08.73-.23,1.03s-.35.54-.61.74c-.3.23-.62.4-.97.49s-.79.15-1.33.15h-2.29v-7.85h2.12c.57,0,1,.02,1.28.06.28.04.56.12.82.26.29.15.5.35.63.59.13.24.2.53.2.86,0,.37-.1.7-.3.99-.2.29-.47.52-.82.69v.04c.48.13.84.36,1.11.69.26.34.39.75.39,1.26Zm-1.48-3.52c0-.19-.03-.35-.1-.49-.06-.14-.17-.25-.31-.33-.17-.09-.36-.15-.57-.17-.21-.02-.5-.03-.88-.03h-1.02v2.3h1.21c.33,0,.58-.02.74-.05.16-.03.32-.1.49-.21.16-.1.28-.24.34-.4.07-.17.1-.37.1-.61Zm.38,3.56c0-.3-.04-.54-.13-.73-.09-.19-.26-.35-.52-.49-.17-.09-.35-.14-.55-.17-.2-.02-.48-.04-.85-.04h-1.21v2.9h.87c.46,0,.83-.02,1.1-.06.27-.04.5-.13.71-.27.2-.14.35-.29.44-.47.09-.17.14-.4.14-.68Z"/>
    <path class="cls-4" d="m236.85,101.7l2.7-7.85h1.31l2.7,7.85h-1.12l-.73-2.19h-3.06l-.73,2.19h-1.07Zm4.56-3.08l-1.24-3.7-1.23,3.7h2.47Z"/>
    <path class="cls-4" d="m246.97,95.54v1.81h-1.85v-1.81h1.85Z"/>
    <path class="cls-4" d="m255.06,99.29c0,.39-.08.74-.23,1.03s-.35.54-.61.74c-.3.23-.62.4-.97.49s-.79.14-1.33.14h-2.29v-7.85h2.12c.57,0,1,.02,1.28.06.28.04.56.12.82.26.29.15.5.35.63.59s.2.53.2.86c0,.37-.1.7-.3.99-.2.29-.47.52-.82.69v.04c.48.13.84.36,1.11.69.26.34.39.75.39,1.26Zm-1.48-3.52c0-.19-.03-.35-.1-.49s-.17-.25-.31-.33c-.17-.1-.36-.15-.57-.17-.21-.02-.5-.03-.88-.03h-1.02v2.3h1.21c.33,0,.58-.02.74-.05.16-.03.32-.1.49-.21.16-.1.28-.24.34-.4.07-.17.1-.37.1-.61Zm.38,3.56c0-.29-.04-.54-.13-.73-.09-.19-.26-.35-.52-.49-.17-.09-.35-.14-.55-.17s-.48-.04-.85-.04h-1.21v2.9h.87c.46,0,.83-.02,1.1-.06.27-.04.5-.13.71-.27.2-.14.35-.29.44-.47.09-.17.14-.4.14-.68Z"/>
    <line class="cls-2" x1="248.82" y1="49.04" x2="257.99" y2="49.04"/>
    <line class="cls-2" x1="248.82" y1="67.04" x2="257.99" y2="67.04"/>
    <line class="cls-2" x1="313" y1="58.04" x2="303.83" y2="58.04"/>
    <line class="cls-2" x1="260.74" y1="49.04" x2="257.99" y2="49.04"/>
    <line class="cls-2" x1="257.99" y1="67.04" x2="260.74" y2="67.04"/>
    <path class="cls-2" d="m257.99,40.04c5.5,6.3,5.5,29.7,0,36"/>
    <line class="cls-2" x1="303.83" y1="58.04" x2="298.33" y2="58.04"/>
    <path class="cls-2" d="m274.49,40.04c10.09,0,18.34,5.4,23.84,18"/>
    <line class="cls-2" x1="257.99" y1="40.04" x2="274.49" y2="40.04"/>
    <path class="cls-2" d="m274.49,76.04c10.09,0,18.34-5.4,23.84-18"/>
    <line class="cls-2" x1="257.99" y1="76.04" x2="274.49" y2="76.04"/>
    <line class="cls-2" x1="184.64" y1="76.04" x2="193.81" y2="76.04"/>
    <line class="cls-2" x1="184.64" y1="94.04" x2="193.81" y2="94.04"/>
    <line class="cls-2" x1="248.82" y1="85.04" x2="239.65" y2="85.04"/>
    <line class="cls-2" x1="193.81" y1="67.04" x2="193.81" y2="103.04"/>
    <path class="cls-2" d="m213.94,103.04s.03,0,.04,0c10.19,0,18.34-8,18.34-18s-8.15-18-18.34-18h-.01"/>
    <line class="cls-2" x1="193.81" y1="67.04" x2="213.98" y2="67.04"/>
    <line class="cls-2" x1="193.81" y1="103.04" x2="213.98" y2="103.04"/>
    <line class="cls-2" x1="239.65" y1="85.04" x2="232.32" y2="85.04"/>
    <line class="cls-2" x1="184.64" y1="22.04" x2="193.81" y2="22.04"/>
    <line class="cls-2" x1="184.64" y1="40.04" x2="193.81" y2="40.04"/>
    <line class="cls-2" x1="248.82" y1="31.04" x2="239.65" y2="31.04"/>
    <line class="cls-2" x1="193.81" y1="13.04" x2="193.81" y2="49.04"/>
    <path class="cls-2" d="m213.94,49.04s.03,0,.04,0c10.19,0,18.34-8,18.34-18s-8.15-18-18.34-18h-.01"/>
    <line class="cls-2" x1="193.81" y1="13.04" x2="213.98" y2="13.04"/>
    <line class="cls-2" x1="193.81" y1="49.04" x2="213.98" y2="49.04"/>
    <line class="cls-2" x1="239.65" y1="31.04" x2="232.32" y2="31.04"/>
    <line class="cls-2" x1="138.8" y1="40.04" x2="147.97" y2="40.04"/>
    <line class="cls-2" x1="184.64" y1="40.04" x2="175.48" y2="40.04"/>
    <line class="cls-2" x1="147.97" y1="28.34" x2="147.97" y2="51.74"/>
    <line class="cls-2" x1="147.97" y1="28.34" x2="167.22" y2="40.04"/>
    <line class="cls-2" x1="167.22" y1="40.04" x2="147.97" y2="51.74"/>
    <path class="cls-2" d="m167.22,39.81c0-1.88,1.53-3.38,3.44-3.38s3.44,1.5,3.44,3.38-1.53,3.38-3.44,3.38-3.44-1.5-3.44-3.38h0Z"/>
    <line class="cls-2" x1="174.56" y1="40.04" x2="175.48" y2="40.04"/>
    <line class="cls-2" x1="138.8" y1="76.04" x2="147.97" y2="76.04"/>
    <line class="cls-2" x1="184.64" y1="76.04" x2="175.48" y2="76.04"/>
    <line class="cls-2" x1="147.97" y1="64.34" x2="147.97" y2="87.74"/>
    <line class="cls-2" x1="147.97" y1="64.34" x2="167.22" y2="76.04"/>
    <line class="cls-2" x1="167.22" y1="76.04" x2="147.97" y2="87.74"/>
    <path class="cls-2" d="m167.22,75.81c0-1.88,1.53-3.38,3.44-3.38s3.44,1.5,3.44,3.38-1.53,3.38-3.44,3.38-3.44-1.5-3.44-3.38h0Z"/>
    <line class="cls-2" x1="174.56" y1="76.04" x2="175.48" y2="76.04"/>
    <line class="cls-2" x1="248.82" y1="31.04" x2="248.82" y2="49.04"/>
    <line class="cls-2" x1="248.82" y1="67.04" x2="248.82" y2="85.04"/>
    <line class="cls-2" x1="129.63" y1="40.04" x2="138.8" y2="40.04"/>
    <line class="cls-2" x1="129.63" y1="76.04" x2="138.8" y2="76.04"/>
    <line class="cls-2" x1="111.3" y1="22.04" x2="129.63" y2="76.04"/>
    <line class="cls-2" x1="111.3" y1="94.04" x2="129.63" y2="40.04"/>
    <path class="cls-3" d="m109.46,22.04c0-1,.82-1.8,1.83-1.8s1.83.8,1.83,1.8-.81,1.8-1.83,1.8-1.83-.8-1.83-1.8h0Z"/>
    <path class="cls-3" d="m109.46,94.04c0-1,.82-1.8,1.83-1.8s1.83.8,1.83,1.8-.81,1.8-1.83,1.8-1.83-.8-1.83-1.8h0Z"/>
    <line class="cls-2" x1="248.82" y1="15.74" x2="255.24" y2="15.74"/>
    <line class="cls-2" x1="236.9" y1="92.24" x2="243.32" y2="92.24"/>
    <line class="cls-2" x1="92.96" y1="22.04" x2="111.3" y2="22.04"/>
    <line class="cls-2" x1="111.3" y1="22.04" x2="184.64" y2="22.04"/>
    <line class="cls-2" x1="92.96" y1="94.04" x2="111.3" y2="94.04"/>
    <line class="cls-2" x1="111.3" y1="94.04" x2="184.64" y2="94.04"/>
  </g>
</svg>