<?xml version="1.0" encoding="UTF-8"?>
<svg id="_レイヤー_1" data-name="レイヤー 1" xmlns="http://www.w3.org/2000/svg" viewBox="0 0 391.83 115.22">
  <defs>
    <style>
      .cls-1 {
        stroke: #fff;
      }

      .cls-1, .cls-2 {
        fill: none;
      }

      .cls-1, .cls-2, .cls-3 {
        stroke-miterlimit: 10;
      }

      .cls-2 {
        stroke-width: .9px;
      }

      .cls-2, .cls-3 {
        stroke: #040000;
        stroke-linecap: square;
      }

      .cls-4, .cls-3 {
        fill: #040000;
        stroke-width: 0px;
      }

      .cls-3 {
        fill-rule: evenodd;
      }
    </style>
  </defs>
  <rect class="cls-1" x=".5" y=".5" width="390.83" height="114.22"/>
  <g>
    <path class="cls-4" d="m88.32,27.08l2.7-7.85h1.31l2.7,7.85h-1.12l-.73-2.19h-3.06l-.73,2.19h-1.07Zm4.56-3.08l-1.24-3.7-1.23,3.7h2.47Z"/>
    <path class="cls-4" d="m94.61,96.67c0,.39-.08.74-.23,1.03s-.35.54-.61.74c-.3.23-.62.4-.97.49s-.79.14-1.33.14h-2.29v-7.85h2.12c.57,0,1,.02,1.28.06s.56.12.82.26c.29.15.5.35.63.59s.2.53.2.86c0,.37-.1.7-.3.99-.2.29-.47.52-.82.69v.04c.48.13.85.36,1.11.69.26.34.39.75.39,1.26Zm-1.48-3.52c0-.19-.03-.35-.1-.49s-.17-.25-.31-.33c-.17-.1-.36-.15-.58-.17-.21-.02-.5-.03-.88-.03h-1.02v2.3h1.21c.33,0,.58-.02.74-.05.16-.03.32-.1.49-.21.16-.1.28-.24.34-.4.07-.17.1-.37.1-.61Zm.38,3.56c0-.29-.04-.54-.13-.73-.09-.19-.26-.35-.52-.49-.17-.09-.35-.14-.55-.17s-.48-.04-.85-.04h-1.21v2.9h.86c.47,0,.83-.02,1.1-.06.27-.04.51-.13.71-.27.2-.14.35-.29.44-.47.09-.17.14-.4.14-.68Z"/>
    <path class="cls-4" d="m316.6,64.87h-1.22l-1.95-3.14-1.98,3.14h-1.15l2.54-3.93-2.47-3.92h1.21l1.91,3.08,1.94-3.08h1.16l-2.5,3.87,2.51,3.98Z"/>
    <path class="cls-4" d="m232.27,27.08l2.7-7.85h1.31l2.7,7.85h-1.12l-.73-2.19h-3.06l-.73,2.19h-1.07Zm4.56-3.08l-1.24-3.7-1.23,3.7h2.47Z"/>
    <path class="cls-4" d="m242.4,20.91v1.81h-1.85v-1.81h1.85Z"/>
    <path class="cls-4" d="m250.47,24.67c0,.39-.08.73-.23,1.03s-.35.54-.61.74c-.3.23-.62.4-.97.49s-.79.15-1.33.15h-2.29v-7.85h2.12c.57,0,1,.02,1.28.06.28.04.56.12.82.26.29.15.5.35.63.59.13.24.2.53.2.86,0,.37-.1.7-.3.99-.2.29-.47.52-.82.69v.04c.48.13.84.36,1.11.69.26.34.39.75.39,1.26Zm-1.48-3.52c0-.19-.03-.35-.1-.49-.06-.14-.17-.25-.31-.33-.17-.09-.36-.15-.57-.17-.21-.02-.5-.03-.88-.03h-1.02v2.3h1.21c.33,0,.58-.02.74-.05.16-.03.32-.1.49-.21.16-.1.28-.24.34-.4.07-.17.1-.37.1-.61Zm.38,3.56c0-.3-.04-.54-.13-.73-.09-.19-.26-.35-.52-.49-.17-.09-.35-.14-.55-.17-.2-.02-.48-.04-.85-.04h-1.21v2.9h.87c.46,0,.83-.02,1.1-.06.27-.04.5-.13.71-.27.2-.14.35-.29.44-.47.09-.17.14-.4.14-.68Z"/>
    <path class="cls-4" d="m232.27,102.68l2.7-7.85h1.31l2.7,7.85h-1.12l-.73-2.19h-3.06l-.73,2.19h-1.07Zm4.56-3.08l-1.24-3.7-1.23,3.7h2.47Z"/>
    <path class="cls-4" d="m242.4,96.51v1.81h-1.85v-1.81h1.85Z"/>
    <path class="cls-4" d="m250.47,100.27c0,.39-.08.74-.23,1.03s-.35.54-.61.74c-.3.23-.62.4-.97.49s-.79.14-1.33.14h-2.29v-7.85h2.12c.57,0,1,.02,1.28.06.28.04.56.12.82.26.29.15.5.35.63.59s.2.53.2.86c0,.37-.1.7-.3.99-.2.29-.47.52-.82.69v.04c.48.13.84.36,1.11.69.26.34.39.75.39,1.26Zm-1.48-3.52c0-.19-.03-.35-.1-.49s-.17-.25-.31-.33c-.17-.1-.36-.15-.57-.17-.21-.02-.5-.03-.88-.03h-1.02v2.3h1.21c.33,0,.58-.02.74-.05.16-.03.32-.1.49-.21.16-.1.28-.24.34-.4.07-.17.1-.37.1-.61Zm.38,3.56c0-.29-.04-.54-.13-.73-.09-.19-.26-.35-.52-.49-.17-.09-.35-.14-.55-.17s-.48-.04-.85-.04h-1.21v2.9h.87c.46,0,.83-.02,1.1-.06.27-.04.5-.13.71-.27.2-.14.35-.29.44-.47.09-.17.14-.4.14-.68Z"/>
    <line class="cls-2" x1="244.24" y1="50.93" x2="253.41" y2="50.93"/>
    <line class="cls-2" x1="244.24" y1="68.93" x2="253.41" y2="68.93"/>
    <line class="cls-2" x1="308.42" y1="59.93" x2="299.25" y2="59.93"/>
    <line class="cls-2" x1="256.16" y1="50.93" x2="253.41" y2="50.93"/>
    <line class="cls-2" x1="253.41" y1="68.93" x2="256.16" y2="68.93"/>
    <path class="cls-2" d="m253.41,41.93c5.5,6.3,5.5,29.7,0,36"/>
    <line class="cls-2" x1="299.25" y1="59.93" x2="293.75" y2="59.93"/>
    <path class="cls-2" d="m269.91,41.93c10.09,0,18.34,5.4,23.84,18"/>
    <line class="cls-2" x1="253.41" y1="41.93" x2="269.91" y2="41.93"/>
    <path class="cls-2" d="m269.91,77.93c10.09,0,18.34-5.4,23.84-18"/>
    <line class="cls-2" x1="253.41" y1="77.93" x2="269.91" y2="77.93"/>
    <line class="cls-2" x1="180.06" y1="23.93" x2="189.23" y2="23.93"/>
    <line class="cls-2" x1="180.06" y1="41.93" x2="189.23" y2="41.93"/>
    <line class="cls-2" x1="244.24" y1="32.93" x2="235.07" y2="32.93"/>
    <line class="cls-2" x1="189.23" y1="14.93" x2="189.23" y2="50.93"/>
    <path class="cls-2" d="m209.35,50.93s.03,0,.05,0c10.19,0,18.34-8,18.34-18s-8.15-18-18.34-18h-.01"/>
    <line class="cls-2" x1="189.23" y1="14.93" x2="209.4" y2="14.93"/>
    <line class="cls-2" x1="189.23" y1="50.93" x2="209.4" y2="50.93"/>
    <line class="cls-2" x1="235.07" y1="32.93" x2="227.74" y2="32.93"/>
    <line class="cls-2" x1="134.22" y1="50.93" x2="143.39" y2="50.93"/>
    <line class="cls-2" x1="180.06" y1="50.93" x2="170.89" y2="50.93"/>
    <line class="cls-2" x1="143.39" y1="39.23" x2="143.39" y2="62.63"/>
    <line class="cls-2" x1="143.39" y1="39.23" x2="162.64" y2="50.93"/>
    <line class="cls-2" x1="162.64" y1="50.93" x2="143.39" y2="62.63"/>
    <path class="cls-2" d="m162.64,50.7c0-1.88,1.53-3.38,3.44-3.38s3.44,1.5,3.44,3.38-1.53,3.38-3.44,3.38-3.44-1.5-3.44-3.38h0Z"/>
    <line class="cls-2" x1="169.98" y1="50.93" x2="170.89" y2="50.93"/>
    <line class="cls-2" x1="134.22" y1="23.93" x2="143.39" y2="23.93"/>
    <line class="cls-2" x1="180.06" y1="23.93" x2="170.89" y2="23.93"/>
    <line class="cls-2" x1="143.39" y1="12.23" x2="143.39" y2="35.63"/>
    <line class="cls-2" x1="143.39" y1="12.23" x2="162.64" y2="23.93"/>
    <line class="cls-2" x1="162.64" y1="23.93" x2="143.39" y2="35.63"/>
    <path class="cls-2" d="m162.64,23.7c0-1.88,1.53-3.38,3.44-3.38s3.44,1.5,3.44,3.38-1.53,3.38-3.44,3.38-3.44-1.5-3.44-3.38h0Z"/>
    <line class="cls-2" x1="169.98" y1="23.93" x2="170.89" y2="23.93"/>
    <line class="cls-2" x1="180.06" y1="77.93" x2="189.23" y2="77.93"/>
    <line class="cls-2" x1="180.06" y1="95.93" x2="189.23" y2="95.93"/>
    <line class="cls-2" x1="244.24" y1="86.93" x2="235.07" y2="86.93"/>
    <line class="cls-2" x1="189.23" y1="68.93" x2="189.23" y2="104.93"/>
    <path class="cls-2" d="m209.35,104.93s.03,0,.05,0c10.19,0,18.34-8,18.34-18s-8.15-18-18.34-18h-.01"/>
    <line class="cls-2" x1="189.23" y1="68.93" x2="209.4" y2="68.93"/>
    <line class="cls-2" x1="189.23" y1="104.93" x2="209.4" y2="104.93"/>
    <line class="cls-2" x1="235.07" y1="86.93" x2="227.74" y2="86.93"/>
    <line class="cls-2" x1="244.24" y1="32.93" x2="244.24" y2="50.93"/>
    <line class="cls-2" x1="244.24" y1="68.93" x2="244.24" y2="86.93"/>
    <line class="cls-2" x1="180.06" y1="41.93" x2="180.06" y2="50.93"/>
    <line class="cls-2" x1="134.22" y1="50.93" x2="134.22" y2="95.93"/>
    <line class="cls-2" x1="115.88" y1="23.93" x2="115.88" y2="77.93"/>
    <line class="cls-2" x1="115.88" y1="77.93" x2="180.06" y2="77.93"/>
    <path class="cls-3" d="m114.05,23.93c0-1,.81-1.8,1.83-1.8s1.83.8,1.83,1.8-.81,1.8-1.83,1.8-1.83-.8-1.83-1.8h0Z"/>
    <path class="cls-3" d="m132.39,95.93c0-1,.81-1.8,1.83-1.8s1.83.8,1.83,1.8-.81,1.8-1.83,1.8-1.83-.8-1.83-1.8h0Z"/>
    <line class="cls-2" x1="244.24" y1="17.63" x2="250.66" y2="17.63"/>
    <line class="cls-2" x1="232.32" y1="17.63" x2="238.74" y2="17.63"/>
    <line class="cls-2" x1="97.55" y1="23.93" x2="115.88" y2="23.93"/>
    <line class="cls-2" x1="115.88" y1="23.93" x2="134.22" y2="23.93"/>
    <line class="cls-2" x1="97.55" y1="95.93" x2="134.22" y2="95.93"/>
    <line class="cls-2" x1="134.22" y1="95.93" x2="180.06" y2="95.93"/>
  </g>
</svg>