<?xml version="1.0" encoding="utf-8" standalone="no"?>
<!DOCTYPE svg PUBLIC "-//W3C//DTD SVG 1.1//EN"
  "http://www.w3.org/Graphics/SVG/1.1/DTD/svg11.dtd">
<svg xmlns:xlink="http://www.w3.org/1999/xlink" width="432pt" height="216pt" viewBox="0 0 432 216" xmlns="http://www.w3.org/2000/svg" version="1.1">
 <metadata>
  <rdf:RDF xmlns:dc="http://purl.org/dc/elements/1.1/" xmlns:cc="http://creativecommons.org/ns#" xmlns:rdf="http://www.w3.org/1999/02/22-rdf-syntax-ns#">
   <cc:Work>
    <dc:type rdf:resource="http://purl.org/dc/dcmitype/StillImage"/>
    <dc:date>2023-11-12T10:22:51.925476</dc:date>
    <dc:format>image/svg+xml</dc:format>
    <dc:creator>
     <cc:Agent>
      <dc:title>Matplotlib v3.7.1, https://matplotlib.org/</dc:title>
     </cc:Agent>
    </dc:creator>
   </cc:Work>
  </rdf:RDF>
 </metadata>
 <defs>
  <style type="text/css">*{stroke-linejoin: round; stroke-linecap: butt}</style>
 </defs>
 <g id="figure_1">
  <g id="patch_1">
   <path d="M 0 216 
L 432 216 
L 432 0 
L 0 0 
z
" style="fill: #ffffff"/>
  </g>
  <g id="axes_1">
   <g id="patch_2">
    <path d="M 15.75 203.85 
L 207.45 203.85 
L 207.45 12.15 
L 15.75 12.15 
z
" style="fill: #ffffff"/>
   </g>
   <g id="matplotlib.axis_1">
    <g id="xtick_1">
     <g id="line2d_1">
      <path d="M 15.75 203.85 
L 15.75 12.15 
" style="fill: none; stroke: #b0b0b0; stroke-width: 0.5; stroke-linecap: square"/>
     </g>
     <g id="line2d_2">
      <defs>
       <path id="m041e15ddbd" d="M 0 1.75 
L 0 -1.75 
" style="stroke: #000000; stroke-width: 0.8"/>
      </defs>
      <g>
       <use xlink:href="#m041e15ddbd" x="15.75" y="165.51" style="stroke: #000000; stroke-width: 0.8"/>
      </g>
     </g>
     <g id="text_1">
      <path d="M 13.8875 175.589687 
L 11.309375 175.589687 
L 11.309375 174.808437 
L 13.8875 174.808437 
L 13.8875 175.589687 
z
M 20.107227 178.152187 
L 15.088477 178.152187 
L 15.088477 177.3225 
Q 15.679102 175.945937 17.349414 174.808437 
L 17.627539 174.6225 
Q 18.482227 174.036562 18.750977 173.71 
Q 19.058789 173.324062 19.058789 172.869375 
Q 19.058789 172.356875 18.696289 171.995937 
Q 18.296289 171.595937 17.646289 171.595937 
Q 16.343164 171.595937 15.938477 173.050625 
L 15.166602 172.7725 
Q 15.722852 170.867812 17.696289 170.867812 
Q 18.774414 170.867812 19.415039 171.506875 
Q 19.975977 172.083437 19.975977 172.899062 
Q 19.975977 173.50375 19.615039 173.9975 
Q 19.282227 174.475625 18.086914 175.2225 
L 17.875977 175.350625 
Q 16.352539 176.292812 15.918164 177.361562 
L 20.107227 177.361562 
L 20.107227 178.152187 
z
" style="stroke: #ffffff; stroke-width: 3"/>
      <path d="M 13.8875 175.589687 
L 11.309375 175.589687 
L 11.309375 174.808437 
L 13.8875 174.808437 
L 13.8875 175.589687 
z
M 20.107227 178.152187 
L 15.088477 178.152187 
L 15.088477 177.3225 
Q 15.679102 175.945937 17.349414 174.808437 
L 17.627539 174.6225 
Q 18.482227 174.036562 18.750977 173.71 
Q 19.058789 173.324062 19.058789 172.869375 
Q 19.058789 172.356875 18.696289 171.995937 
Q 18.296289 171.595937 17.646289 171.595937 
Q 16.343164 171.595937 15.938477 173.050625 
L 15.166602 172.7725 
Q 15.722852 170.867812 17.696289 170.867812 
Q 18.774414 170.867812 19.415039 171.506875 
Q 19.975977 172.083437 19.975977 172.899062 
Q 19.975977 173.50375 19.615039 173.9975 
Q 19.282227 174.475625 18.086914 175.2225 
L 17.875977 175.350625 
Q 16.352539 176.292812 15.918164 177.361562 
L 20.107227 177.361562 
L 20.107227 178.152187 
z
"/>
     </g>
    </g>
    <g id="xtick_2">
     <g id="line2d_3">
      <path d="M 54.09 203.85 
L 54.09 12.15 
" style="fill: none; stroke: #b0b0b0; stroke-width: 0.5; stroke-linecap: square"/>
     </g>
     <g id="line2d_4">
      <g>
       <use xlink:href="#m041e15ddbd" x="54.09" y="165.51" style="stroke: #000000; stroke-width: 0.8"/>
      </g>
     </g>
    </g>
    <g id="xtick_3">
     <g id="line2d_5">
      <path d="M 92.43 203.85 
L 92.43 12.15 
" style="fill: none; stroke: #b0b0b0; stroke-width: 0.5; stroke-linecap: square"/>
     </g>
     <g id="line2d_6">
      <g>
       <use xlink:href="#m041e15ddbd" x="92.43" y="165.51" style="stroke: #000000; stroke-width: 0.8"/>
      </g>
     </g>
     <g id="text_2">
      <path d="M 94.997969 178.152187 
L 89.979219 178.152187 
L 89.979219 177.3225 
Q 90.569844 175.945937 92.240156 174.808437 
L 92.518281 174.6225 
Q 93.372969 174.036562 93.641719 173.71 
Q 93.949531 173.324062 93.949531 172.869375 
Q 93.949531 172.356875 93.587031 171.995937 
Q 93.187031 171.595937 92.537031 171.595937 
Q 91.233906 171.595937 90.829219 173.050625 
L 90.057344 172.7725 
Q 90.613594 170.867812 92.587031 170.867812 
Q 93.665156 170.867812 94.305781 171.506875 
Q 94.866719 172.083437 94.866719 172.899062 
Q 94.866719 173.50375 94.505781 173.9975 
Q 94.172969 174.475625 92.977656 175.2225 
L 92.766719 175.350625 
Q 91.243281 176.292812 90.808906 177.361562 
L 94.997969 177.361562 
L 94.997969 178.152187 
z
" style="stroke: #ffffff; stroke-width: 3"/>
      <path d="M 94.997969 178.152187 
L 89.979219 178.152187 
L 89.979219 177.3225 
Q 90.569844 175.945937 92.240156 174.808437 
L 92.518281 174.6225 
Q 93.372969 174.036562 93.641719 173.71 
Q 93.949531 173.324062 93.949531 172.869375 
Q 93.949531 172.356875 93.587031 171.995937 
Q 93.187031 171.595937 92.537031 171.595937 
Q 91.233906 171.595937 90.829219 173.050625 
L 90.057344 172.7725 
Q 90.613594 170.867812 92.587031 170.867812 
Q 93.665156 170.867812 94.305781 171.506875 
Q 94.866719 172.083437 94.866719 172.899062 
Q 94.866719 173.50375 94.505781 173.9975 
Q 94.172969 174.475625 92.977656 175.2225 
L 92.766719 175.350625 
Q 91.243281 176.292812 90.808906 177.361562 
L 94.997969 177.361562 
L 94.997969 178.152187 
z
"/>
     </g>
    </g>
    <g id="xtick_4">
     <g id="line2d_7">
      <path d="M 130.77 203.85 
L 130.77 12.15 
" style="fill: none; stroke: #b0b0b0; stroke-width: 0.5; stroke-linecap: square"/>
     </g>
     <g id="line2d_8">
      <g>
       <use xlink:href="#m041e15ddbd" x="130.77" y="165.51" style="stroke: #000000; stroke-width: 0.8"/>
      </g>
     </g>
     <g id="text_3">
      <path d="M 133.578594 176.439687 
L 132.400469 176.439687 
L 132.400469 178.152187 
L 131.600469 178.152187 
L 131.600469 176.439687 
L 127.928594 176.439687 
L 127.928594 175.638125 
L 131.458281 170.94125 
L 132.400469 170.94125 
L 132.400469 175.6975 
L 133.578594 175.6975 
L 133.578594 176.439687 
z
M 131.648906 171.830312 
L 131.619219 171.830312 
Q 131.180156 172.538125 130.750469 173.119375 
L 128.806719 175.6975 
L 131.600469 175.6975 
L 131.600469 173.338125 
Q 131.600469 172.811562 131.648906 171.830312 
z
" style="stroke: #ffffff; stroke-width: 3"/>
      <path d="M 133.578594 176.439687 
L 132.400469 176.439687 
L 132.400469 178.152187 
L 131.600469 178.152187 
L 131.600469 176.439687 
L 127.928594 176.439687 
L 127.928594 175.638125 
L 131.458281 170.94125 
L 132.400469 170.94125 
L 132.400469 175.6975 
L 133.578594 175.6975 
L 133.578594 176.439687 
z
M 131.648906 171.830312 
L 131.619219 171.830312 
Q 131.180156 172.538125 130.750469 173.119375 
L 128.806719 175.6975 
L 131.600469 175.6975 
L 131.600469 173.338125 
Q 131.600469 172.811562 131.648906 171.830312 
z
"/>
     </g>
    </g>
    <g id="xtick_5">
     <g id="line2d_9">
      <path d="M 169.11 203.85 
L 169.11 12.15 
" style="fill: none; stroke: #b0b0b0; stroke-width: 0.5; stroke-linecap: square"/>
     </g>
     <g id="line2d_10">
      <g>
       <use xlink:href="#m041e15ddbd" x="169.11" y="165.51" style="stroke: #000000; stroke-width: 0.8"/>
      </g>
     </g>
     <g id="text_4">
      <path d="M 167.610781 174.613125 
Q 168.318594 173.592812 169.451406 173.592812 
Q 170.501406 173.592812 171.142031 174.324062 
Q 171.702969 174.96 171.702969 175.8725 
Q 171.702969 176.869375 171.073281 177.5725 
Q 170.418594 178.299062 169.363906 178.299062 
Q 168.109219 178.299062 167.401406 177.342812 
Q 166.712344 176.41 166.712344 174.769375 
Q 166.712344 172.899062 167.543594 171.830312 
Q 168.295156 170.867812 169.510781 170.867812 
Q 170.946719 170.867812 171.599844 171.961562 
L 170.882656 172.352187 
Q 170.482656 171.585 169.554531 171.585 
Q 167.709219 171.585 167.571719 174.613125 
L 167.610781 174.613125 
z
M 169.306094 174.270937 
Q 168.592031 174.270937 168.123281 174.80375 
Q 167.704531 175.281875 167.704531 175.842812 
Q 167.704531 176.444375 168.074844 176.931875 
Q 168.573281 177.581875 169.334219 177.581875 
Q 170.131094 177.581875 170.556094 176.931875 
Q 170.843594 176.488125 170.843594 175.902187 
Q 170.843594 175.213125 170.462344 174.769375 
Q 170.023281 174.270937 169.306094 174.270937 
z
" style="stroke: #ffffff; stroke-width: 3"/>
      <path d="M 167.610781 174.613125 
Q 168.318594 173.592812 169.451406 173.592812 
Q 170.501406 173.592812 171.142031 174.324062 
Q 171.702969 174.96 171.702969 175.8725 
Q 171.702969 176.869375 171.073281 177.5725 
Q 170.418594 178.299062 169.363906 178.299062 
Q 168.109219 178.299062 167.401406 177.342812 
Q 166.712344 176.41 166.712344 174.769375 
Q 166.712344 172.899062 167.543594 171.830312 
Q 168.295156 170.867812 169.510781 170.867812 
Q 170.946719 170.867812 171.599844 171.961562 
L 170.882656 172.352187 
Q 170.482656 171.585 169.554531 171.585 
Q 167.709219 171.585 167.571719 174.613125 
L 167.610781 174.613125 
z
M 169.306094 174.270937 
Q 168.592031 174.270937 168.123281 174.80375 
Q 167.704531 175.281875 167.704531 175.842812 
Q 167.704531 176.444375 168.074844 176.931875 
Q 168.573281 177.581875 169.334219 177.581875 
Q 170.131094 177.581875 170.556094 176.931875 
Q 170.843594 176.488125 170.843594 175.902187 
Q 170.843594 175.213125 170.462344 174.769375 
Q 170.023281 174.270937 169.306094 174.270937 
z
"/>
     </g>
    </g>
    <g id="xtick_6">
     <g id="line2d_11">
      <path d="M 207.45 203.85 
L 207.45 12.15 
" style="fill: none; stroke: #b0b0b0; stroke-width: 0.5; stroke-linecap: square"/>
     </g>
     <g id="line2d_12">
      <g>
       <use xlink:href="#m041e15ddbd" x="207.45" y="165.51" style="stroke: #000000; stroke-width: 0.8"/>
      </g>
     </g>
     <g id="text_5">
      <path d="M 208.271094 174.461562 
Q 210.082031 175.077187 210.082031 176.380312 
Q 210.082031 177.405312 209.144531 177.942812 
Q 208.461719 178.338125 207.450781 178.338125 
Q 206.435156 178.338125 205.750781 177.942812 
Q 204.842969 177.420937 204.842969 176.41 
Q 204.842969 175.144375 206.502344 174.530312 
L 206.502344 174.500625 
Q 205.052344 173.97875 205.052344 172.767812 
Q 205.052344 171.844375 205.833594 171.288125 
Q 206.497656 170.819375 207.455469 170.819375 
Q 208.524219 170.819375 209.192969 171.370937 
Q 209.852344 171.892812 209.852344 172.67875 
Q 209.852344 174.0225 208.271094 174.431875 
L 208.271094 174.461562 
z
M 207.460156 174.149062 
Q 208.983594 173.788125 208.983594 172.738125 
Q 208.983594 172.131875 208.480469 171.76625 
Q 208.071094 171.458437 207.450781 171.458437 
Q 206.810156 171.458437 206.380469 171.800625 
Q 205.941406 172.161562 205.941406 172.7475 
Q 205.941406 173.32875 206.410156 173.680312 
Q 206.635156 173.861562 206.991406 173.9975 
Q 207.400781 174.163125 207.460156 174.149062 
z
M 207.391406 174.799062 
Q 205.741406 175.233437 205.741406 176.350625 
Q 205.741406 177.039687 206.352344 177.381875 
Q 206.810156 177.639687 207.439844 177.639687 
Q 208.324219 177.639687 208.802344 177.161562 
Q 209.153906 176.81 209.153906 176.2975 
Q 209.153906 175.76 208.666406 175.36 
Q 208.377344 175.135 207.972656 174.969375 
Q 207.499219 174.77875 207.391406 174.799062 
z
" style="stroke: #ffffff; stroke-width: 3"/>
      <path d="M 208.271094 174.461562 
Q 210.082031 175.077187 210.082031 176.380312 
Q 210.082031 177.405312 209.144531 177.942812 
Q 208.461719 178.338125 207.450781 178.338125 
Q 206.435156 178.338125 205.750781 177.942812 
Q 204.842969 177.420937 204.842969 176.41 
Q 204.842969 175.144375 206.502344 174.530312 
L 206.502344 174.500625 
Q 205.052344 173.97875 205.052344 172.767812 
Q 205.052344 171.844375 205.833594 171.288125 
Q 206.497656 170.819375 207.455469 170.819375 
Q 208.524219 170.819375 209.192969 171.370937 
Q 209.852344 171.892812 209.852344 172.67875 
Q 209.852344 174.0225 208.271094 174.431875 
L 208.271094 174.461562 
z
M 207.460156 174.149062 
Q 208.983594 173.788125 208.983594 172.738125 
Q 208.983594 172.131875 208.480469 171.76625 
Q 208.071094 171.458437 207.450781 171.458437 
Q 206.810156 171.458437 206.380469 171.800625 
Q 205.941406 172.161562 205.941406 172.7475 
Q 205.941406 173.32875 206.410156 173.680312 
Q 206.635156 173.861562 206.991406 173.9975 
Q 207.400781 174.163125 207.460156 174.149062 
z
M 207.391406 174.799062 
Q 205.741406 175.233437 205.741406 176.350625 
Q 205.741406 177.039687 206.352344 177.381875 
Q 206.810156 177.639687 207.439844 177.639687 
Q 208.324219 177.639687 208.802344 177.161562 
Q 209.153906 176.81 209.153906 176.2975 
Q 209.153906 175.76 208.666406 175.36 
Q 208.377344 175.135 207.972656 174.969375 
Q 207.499219 174.77875 207.391406 174.799062 
z
"/>
     </g>
    </g>
    <g id="xtick_7">
     <g id="line2d_13">
      <path d="M 34.92 203.85 
L 34.92 12.15 
" style="fill: none; stroke: #b0b0b0; stroke-width: 0.5; stroke-linecap: square"/>
     </g>
     <g id="line2d_14">
      <defs>
       <path id="mad0fbfc4dc" d="M 0 1 
L 0 -1 
" style="stroke: #000000; stroke-width: 0.6"/>
      </defs>
      <g>
       <use xlink:href="#mad0fbfc4dc" x="34.92" y="165.51" style="stroke: #000000; stroke-width: 0.6"/>
      </g>
     </g>
    </g>
    <g id="xtick_8">
     <g id="line2d_15">
      <path d="M 73.26 203.85 
L 73.26 12.15 
" style="fill: none; stroke: #b0b0b0; stroke-width: 0.5; stroke-linecap: square"/>
     </g>
     <g id="line2d_16">
      <g>
       <use xlink:href="#mad0fbfc4dc" x="73.26" y="165.51" style="stroke: #000000; stroke-width: 0.6"/>
      </g>
     </g>
    </g>
    <g id="xtick_9">
     <g id="line2d_17">
      <path d="M 111.6 203.85 
L 111.6 12.15 
" style="fill: none; stroke: #b0b0b0; stroke-width: 0.5; stroke-linecap: square"/>
     </g>
     <g id="line2d_18">
      <g>
       <use xlink:href="#mad0fbfc4dc" x="111.6" y="165.51" style="stroke: #000000; stroke-width: 0.6"/>
      </g>
     </g>
    </g>
    <g id="xtick_10">
     <g id="line2d_19">
      <path d="M 149.94 203.85 
L 149.94 12.15 
" style="fill: none; stroke: #b0b0b0; stroke-width: 0.5; stroke-linecap: square"/>
     </g>
     <g id="line2d_20">
      <g>
       <use xlink:href="#mad0fbfc4dc" x="149.94" y="165.51" style="stroke: #000000; stroke-width: 0.6"/>
      </g>
     </g>
    </g>
    <g id="xtick_11">
     <g id="line2d_21">
      <path d="M 188.28 203.85 
L 188.28 12.15 
" style="fill: none; stroke: #b0b0b0; stroke-width: 0.5; stroke-linecap: square"/>
     </g>
     <g id="line2d_22">
      <g>
       <use xlink:href="#mad0fbfc4dc" x="188.28" y="165.51" style="stroke: #000000; stroke-width: 0.6"/>
      </g>
     </g>
    </g>
   </g>
   <g id="matplotlib.axis_2">
    <g id="ytick_1">
     <g id="line2d_23">
      <path d="M 15.75 203.85 
L 207.45 203.85 
" style="fill: none; stroke: #b0b0b0; stroke-width: 0.5; stroke-linecap: square"/>
     </g>
     <g id="line2d_24">
      <defs>
       <path id="m942942e6e2" d="M 1.75 0 
L -1.75 -0 
" style="stroke: #000000; stroke-width: 0.8"/>
      </defs>
      <g>
       <use xlink:href="#m942942e6e2" x="54.09" y="203.85" style="stroke: #000000; stroke-width: 0.8"/>
      </g>
     </g>
     <g id="text_6">
      <path d="M 42.038438 204.934375 
L 39.460313 204.934375 
L 39.460313 204.153125 
L 42.038438 204.153125 
L 42.038438 204.934375 
z
M 48.258164 207.496875 
L 43.239414 207.496875 
L 43.239414 206.667187 
Q 43.830039 205.290625 45.500352 204.153125 
L 45.778477 203.967187 
Q 46.633164 203.38125 46.901914 203.054687 
Q 47.209727 202.66875 47.209727 202.214062 
Q 47.209727 201.701562 46.847227 201.340625 
Q 46.447227 200.940625 45.797227 200.940625 
Q 44.494102 200.940625 44.089414 202.395312 
L 43.317539 202.117187 
Q 43.873789 200.2125 45.847227 200.2125 
Q 46.925352 200.2125 47.565977 200.851562 
Q 48.126914 201.428125 48.126914 202.24375 
Q 48.126914 202.848437 47.765977 203.342187 
Q 47.433164 203.820312 46.237852 204.567187 
L 46.026914 204.695312 
Q 44.503477 205.6375 44.069102 206.70625 
L 48.258164 206.70625 
L 48.258164 207.496875 
z
" style="stroke: #ffffff; stroke-width: 3"/>
      <path d="M 42.038438 204.934375 
L 39.460313 204.934375 
L 39.460313 204.153125 
L 42.038438 204.153125 
L 42.038438 204.934375 
z
M 48.258164 207.496875 
L 43.239414 207.496875 
L 43.239414 206.667187 
Q 43.830039 205.290625 45.500352 204.153125 
L 45.778477 203.967187 
Q 46.633164 203.38125 46.901914 203.054687 
Q 47.209727 202.66875 47.209727 202.214062 
Q 47.209727 201.701562 46.847227 201.340625 
Q 46.447227 200.940625 45.797227 200.940625 
Q 44.494102 200.940625 44.089414 202.395312 
L 43.317539 202.117187 
Q 43.873789 200.2125 45.847227 200.2125 
Q 46.925352 200.2125 47.565977 200.851562 
Q 48.126914 201.428125 48.126914 202.24375 
Q 48.126914 202.848437 47.765977 203.342187 
Q 47.433164 203.820312 46.237852 204.567187 
L 46.026914 204.695312 
Q 44.503477 205.6375 44.069102 206.70625 
L 48.258164 206.70625 
L 48.258164 207.496875 
z
"/>
     </g>
    </g>
    <g id="ytick_2">
     <g id="line2d_25">
      <path d="M 15.75 165.51 
L 207.45 165.51 
" style="fill: none; stroke: #b0b0b0; stroke-width: 0.5; stroke-linecap: square"/>
     </g>
     <g id="line2d_26">
      <g>
       <use xlink:href="#m942942e6e2" x="54.09" y="165.51" style="stroke: #000000; stroke-width: 0.8"/>
      </g>
     </g>
    </g>
    <g id="ytick_3">
     <g id="line2d_27">
      <path d="M 15.75 127.17 
L 207.45 127.17 
" style="fill: none; stroke: #b0b0b0; stroke-width: 0.5; stroke-linecap: square"/>
     </g>
     <g id="line2d_28">
      <g>
       <use xlink:href="#m942942e6e2" x="54.09" y="127.17" style="stroke: #000000; stroke-width: 0.8"/>
      </g>
     </g>
     <g id="text_7">
      <path d="M 48.25875 130.816875 
L 43.24 130.816875 
L 43.24 129.987187 
Q 43.830625 128.610625 45.500938 127.473125 
L 45.779063 127.287187 
Q 46.63375 126.70125 46.9025 126.374687 
Q 47.210313 125.98875 47.210313 125.534062 
Q 47.210313 125.021562 46.847813 124.660625 
Q 46.447813 124.260625 45.797813 124.260625 
Q 44.494688 124.260625 44.09 125.715312 
L 43.318125 125.437187 
Q 43.874375 123.5325 45.847813 123.5325 
Q 46.925938 123.5325 47.566563 124.171562 
Q 48.1275 124.748125 48.1275 125.56375 
Q 48.1275 126.168437 47.766563 126.662187 
Q 47.43375 127.140312 46.238438 127.887187 
L 46.0275 128.015312 
Q 44.504063 128.9575 44.069688 130.02625 
L 48.25875 130.02625 
L 48.25875 130.816875 
z
" style="stroke: #ffffff; stroke-width: 3"/>
      <path d="M 48.25875 130.816875 
L 43.24 130.816875 
L 43.24 129.987187 
Q 43.830625 128.610625 45.500938 127.473125 
L 45.779063 127.287187 
Q 46.63375 126.70125 46.9025 126.374687 
Q 47.210313 125.98875 47.210313 125.534062 
Q 47.210313 125.021562 46.847813 124.660625 
Q 46.447813 124.260625 45.797813 124.260625 
Q 44.494688 124.260625 44.09 125.715312 
L 43.318125 125.437187 
Q 43.874375 123.5325 45.847813 123.5325 
Q 46.925938 123.5325 47.566563 124.171562 
Q 48.1275 124.748125 48.1275 125.56375 
Q 48.1275 126.168437 47.766563 126.662187 
Q 47.43375 127.140312 46.238438 127.887187 
L 46.0275 128.015312 
Q 44.504063 128.9575 44.069688 130.02625 
L 48.25875 130.02625 
L 48.25875 130.816875 
z
"/>
     </g>
    </g>
    <g id="ytick_4">
     <g id="line2d_29">
      <path d="M 15.75 88.83 
L 207.45 88.83 
" style="fill: none; stroke: #b0b0b0; stroke-width: 0.5; stroke-linecap: square"/>
     </g>
     <g id="line2d_30">
      <g>
       <use xlink:href="#m942942e6e2" x="54.09" y="88.83" style="stroke: #000000; stroke-width: 0.8"/>
      </g>
     </g>
     <g id="text_8">
      <path d="M 48.499375 90.764375 
L 47.32125 90.764375 
L 47.32125 92.476875 
L 46.52125 92.476875 
L 46.52125 90.764375 
L 42.849375 90.764375 
L 42.849375 89.962813 
L 46.379063 85.265938 
L 47.32125 85.265938 
L 47.32125 90.022188 
L 48.499375 90.022188 
L 48.499375 90.764375 
z
M 46.569688 86.155 
L 46.54 86.155 
Q 46.100938 86.862813 45.67125 87.444063 
L 43.7275 90.022188 
L 46.52125 90.022188 
L 46.52125 87.662813 
Q 46.52125 87.13625 46.569688 86.155 
z
" style="stroke: #ffffff; stroke-width: 3"/>
      <path d="M 48.499375 90.764375 
L 47.32125 90.764375 
L 47.32125 92.476875 
L 46.52125 92.476875 
L 46.52125 90.764375 
L 42.849375 90.764375 
L 42.849375 89.962813 
L 46.379063 85.265938 
L 47.32125 85.265938 
L 47.32125 90.022188 
L 48.499375 90.022188 
L 48.499375 90.764375 
z
M 46.569688 86.155 
L 46.54 86.155 
Q 46.100938 86.862813 45.67125 87.444063 
L 43.7275 90.022188 
L 46.52125 90.022188 
L 46.52125 87.662813 
Q 46.52125 87.13625 46.569688 86.155 
z
"/>
     </g>
    </g>
    <g id="ytick_5">
     <g id="line2d_31">
      <path d="M 15.75 50.49 
L 207.45 50.49 
" style="fill: none; stroke: #b0b0b0; stroke-width: 0.5; stroke-linecap: square"/>
     </g>
     <g id="line2d_32">
      <g>
       <use xlink:href="#m942942e6e2" x="54.09" y="50.49" style="stroke: #000000; stroke-width: 0.8"/>
      </g>
     </g>
     <g id="text_9">
      <path d="M 44.191563 50.597813 
Q 44.899375 49.5775 46.032188 49.5775 
Q 47.082188 49.5775 47.722813 50.30875 
Q 48.28375 50.944688 48.28375 51.857188 
Q 48.28375 52.854063 47.654063 53.557188 
Q 46.999375 54.28375 45.944688 54.28375 
Q 44.69 54.28375 43.982188 53.3275 
Q 43.293125 52.394688 43.293125 50.754063 
Q 43.293125 48.88375 44.124375 47.815 
Q 44.875938 46.8525 46.091563 46.8525 
Q 47.5275 46.8525 48.180625 47.94625 
L 47.463438 48.336875 
Q 47.063438 47.569688 46.135313 47.569688 
Q 44.29 47.569688 44.1525 50.597813 
L 44.191563 50.597813 
z
M 45.886875 50.255625 
Q 45.172813 50.255625 44.704063 50.788438 
Q 44.285313 51.266563 44.285313 51.8275 
Q 44.285313 52.429063 44.655625 52.916563 
Q 45.154063 53.566563 45.915 53.566563 
Q 46.711875 53.566563 47.136875 52.916563 
Q 47.424375 52.472813 47.424375 51.886875 
Q 47.424375 51.197813 47.043125 50.754063 
Q 46.604063 50.255625 45.886875 50.255625 
z
" style="stroke: #ffffff; stroke-width: 3"/>
      <path d="M 44.191563 50.597813 
Q 44.899375 49.5775 46.032188 49.5775 
Q 47.082188 49.5775 47.722813 50.30875 
Q 48.28375 50.944688 48.28375 51.857188 
Q 48.28375 52.854063 47.654063 53.557188 
Q 46.999375 54.28375 45.944688 54.28375 
Q 44.69 54.28375 43.982188 53.3275 
Q 43.293125 52.394688 43.293125 50.754063 
Q 43.293125 48.88375 44.124375 47.815 
Q 44.875938 46.8525 46.091563 46.8525 
Q 47.5275 46.8525 48.180625 47.94625 
L 47.463438 48.336875 
Q 47.063438 47.569688 46.135313 47.569688 
Q 44.29 47.569688 44.1525 50.597813 
L 44.191563 50.597813 
z
M 45.886875 50.255625 
Q 45.172813 50.255625 44.704063 50.788438 
Q 44.285313 51.266563 44.285313 51.8275 
Q 44.285313 52.429063 44.655625 52.916563 
Q 45.154063 53.566563 45.915 53.566563 
Q 46.711875 53.566563 47.136875 52.916563 
Q 47.424375 52.472813 47.424375 51.886875 
Q 47.424375 51.197813 47.043125 50.754063 
Q 46.604063 50.255625 45.886875 50.255625 
z
"/>
     </g>
    </g>
    <g id="ytick_6">
     <g id="line2d_33">
      <path d="M 15.75 12.15 
L 207.45 12.15 
" style="fill: none; stroke: #b0b0b0; stroke-width: 0.5; stroke-linecap: square"/>
     </g>
     <g id="line2d_34">
      <g>
       <use xlink:href="#m942942e6e2" x="54.09" y="12.15" style="stroke: #000000; stroke-width: 0.8"/>
      </g>
     </g>
     <g id="text_10">
      <path d="M 46.511875 12.10625 
Q 48.322813 12.721875 48.322813 14.025 
Q 48.322813 15.05 47.385313 15.5875 
Q 46.7025 15.982813 45.691563 15.982813 
Q 44.675938 15.982813 43.991563 15.5875 
Q 43.08375 15.065625 43.08375 14.054688 
Q 43.08375 12.789063 44.743125 12.175 
L 44.743125 12.145313 
Q 43.293125 11.623438 43.293125 10.4125 
Q 43.293125 9.489063 44.074375 8.932813 
Q 44.738438 8.464063 45.69625 8.464063 
Q 46.765 8.464063 47.43375 9.015625 
Q 48.093125 9.5375 48.093125 10.323438 
Q 48.093125 11.667188 46.511875 12.076563 
L 46.511875 12.10625 
z
M 45.700938 11.79375 
Q 47.224375 11.432813 47.224375 10.382813 
Q 47.224375 9.776563 46.72125 9.410938 
Q 46.311875 9.103125 45.691563 9.103125 
Q 45.050938 9.103125 44.62125 9.445313 
Q 44.182188 9.80625 44.182188 10.392188 
Q 44.182188 10.973438 44.650938 11.325 
Q 44.875938 11.50625 45.232188 11.642188 
Q 45.641563 11.807813 45.700938 11.79375 
z
M 45.632188 12.44375 
Q 43.982188 12.878125 43.982188 13.995313 
Q 43.982188 14.684375 44.593125 15.026563 
Q 45.050938 15.284375 45.680625 15.284375 
Q 46.565 15.284375 47.043125 14.80625 
Q 47.394688 14.454688 47.394688 13.942188 
Q 47.394688 13.404688 46.907188 13.004688 
Q 46.618125 12.779688 46.213438 12.614063 
Q 45.74 12.423438 45.632188 12.44375 
z
" style="stroke: #ffffff; stroke-width: 3"/>
      <path d="M 46.511875 12.10625 
Q 48.322813 12.721875 48.322813 14.025 
Q 48.322813 15.05 47.385313 15.5875 
Q 46.7025 15.982813 45.691563 15.982813 
Q 44.675938 15.982813 43.991563 15.5875 
Q 43.08375 15.065625 43.08375 14.054688 
Q 43.08375 12.789063 44.743125 12.175 
L 44.743125 12.145313 
Q 43.293125 11.623438 43.293125 10.4125 
Q 43.293125 9.489063 44.074375 8.932813 
Q 44.738438 8.464063 45.69625 8.464063 
Q 46.765 8.464063 47.43375 9.015625 
Q 48.093125 9.5375 48.093125 10.323438 
Q 48.093125 11.667188 46.511875 12.076563 
L 46.511875 12.10625 
z
M 45.700938 11.79375 
Q 47.224375 11.432813 47.224375 10.382813 
Q 47.224375 9.776563 46.72125 9.410938 
Q 46.311875 9.103125 45.691563 9.103125 
Q 45.050938 9.103125 44.62125 9.445313 
Q 44.182188 9.80625 44.182188 10.392188 
Q 44.182188 10.973438 44.650938 11.325 
Q 44.875938 11.50625 45.232188 11.642188 
Q 45.641563 11.807813 45.700938 11.79375 
z
M 45.632188 12.44375 
Q 43.982188 12.878125 43.982188 13.995313 
Q 43.982188 14.684375 44.593125 15.026563 
Q 45.050938 15.284375 45.680625 15.284375 
Q 46.565 15.284375 47.043125 14.80625 
Q 47.394688 14.454688 47.394688 13.942188 
Q 47.394688 13.404688 46.907188 13.004688 
Q 46.618125 12.779688 46.213438 12.614063 
Q 45.74 12.423438 45.632188 12.44375 
z
"/>
     </g>
    </g>
    <g id="ytick_7">
     <g id="line2d_35">
      <path d="M 15.75 184.68 
L 207.45 184.68 
" style="fill: none; stroke: #b0b0b0; stroke-width: 0.5; stroke-linecap: square"/>
     </g>
     <g id="line2d_36">
      <defs>
       <path id="m50f261c5af" d="M 1 0 
L -1 -0 
" style="stroke: #000000; stroke-width: 0.6"/>
      </defs>
      <g>
       <use xlink:href="#m50f261c5af" x="54.09" y="184.68" style="stroke: #000000; stroke-width: 0.6"/>
      </g>
     </g>
    </g>
    <g id="ytick_8">
     <g id="line2d_37">
      <path d="M 15.75 146.34 
L 207.45 146.34 
" style="fill: none; stroke: #b0b0b0; stroke-width: 0.5; stroke-linecap: square"/>
     </g>
     <g id="line2d_38">
      <g>
       <use xlink:href="#m50f261c5af" x="54.09" y="146.34" style="stroke: #000000; stroke-width: 0.6"/>
      </g>
     </g>
    </g>
    <g id="ytick_9">
     <g id="line2d_39">
      <path d="M 15.75 108 
L 207.45 108 
" style="fill: none; stroke: #b0b0b0; stroke-width: 0.5; stroke-linecap: square"/>
     </g>
     <g id="line2d_40">
      <g>
       <use xlink:href="#m50f261c5af" x="54.09" y="108" style="stroke: #000000; stroke-width: 0.6"/>
      </g>
     </g>
    </g>
    <g id="ytick_10">
     <g id="line2d_41">
      <path d="M 15.75 69.66 
L 207.45 69.66 
" style="fill: none; stroke: #b0b0b0; stroke-width: 0.5; stroke-linecap: square"/>
     </g>
     <g id="line2d_42">
      <g>
       <use xlink:href="#m50f261c5af" x="54.09" y="69.66" style="stroke: #000000; stroke-width: 0.6"/>
      </g>
     </g>
    </g>
    <g id="ytick_11">
     <g id="line2d_43">
      <path d="M 15.75 31.32 
L 207.45 31.32 
" style="fill: none; stroke: #b0b0b0; stroke-width: 0.5; stroke-linecap: square"/>
     </g>
     <g id="line2d_44">
      <g>
       <use xlink:href="#m50f261c5af" x="54.09" y="31.32" style="stroke: #000000; stroke-width: 0.6"/>
      </g>
     </g>
    </g>
   </g>
   <g id="PathCollection_1">
    <defs>
     <path id="mc26fa2a54d" d="M 0 1.5 
C 0.397805 1.5 0.77937 1.341951 1.06066 1.06066 
C 1.341951 0.77937 1.5 0.397805 1.5 0 
C 1.5 -0.397805 1.341951 -0.77937 1.06066 -1.06066 
C 0.77937 -1.341951 0.397805 -1.5 0 -1.5 
C -0.397805 -1.5 -0.77937 -1.341951 -1.06066 -1.06066 
C -1.341951 -0.77937 -1.5 -0.397805 -1.5 0 
C -1.5 0.397805 -1.341951 0.77937 -1.06066 1.06066 
C -0.77937 1.341951 -0.397805 1.5 0 1.5 
z
" style="stroke: #1f77b4"/>
    </defs>
    <g clip-path="url(#p8c2e16217e)">
     <use xlink:href="#mc26fa2a54d" x="149.94" y="108" style="fill: #1f77b4; stroke: #1f77b4"/>
    </g>
   </g>
   <g id="PathCollection_2">
    <defs>
     <path id="m6771912944" d="M 0 1.5 
C 0.397805 1.5 0.77937 1.341951 1.06066 1.06066 
C 1.341951 0.77937 1.5 0.397805 1.5 0 
C 1.5 -0.397805 1.341951 -0.77937 1.06066 -1.06066 
C 0.77937 -1.341951 0.397805 -1.5 0 -1.5 
C -0.397805 -1.5 -0.77937 -1.341951 -1.06066 -1.06066 
C -1.341951 -0.77937 -1.5 -0.397805 -1.5 0 
C -1.5 0.397805 -1.341951 0.77937 -1.06066 1.06066 
C -0.77937 1.341951 -0.397805 1.5 0 1.5 
z
" style="stroke: #000000"/>
    </defs>
    <g clip-path="url(#p8c2e16217e)">
     <use xlink:href="#m6771912944" x="54.09" y="165.51" style="stroke: #000000"/>
    </g>
   </g>
   <g id="patch_3">
    <path d="M 54.09 203.85 
L 54.09 12.15 
" style="fill: none; stroke: #000000; stroke-width: 0.8; stroke-linejoin: miter; stroke-linecap: square"/>
   </g>
   <g id="patch_4">
    <path d="M 15.75 165.51 
L 207.45 165.51 
" style="fill: none; stroke: #000000; stroke-width: 0.8; stroke-linejoin: miter; stroke-linecap: square"/>
   </g>
   <g id="text_11">
    <path d="M 141.89 104.14725 
Q 141.33375 103.706625 140.930625 103.137875 
Q 140.529062 102.569125 140.27125 101.923812 
Q 140.015 101.280062 139.888437 100.576937 
Q 139.761875 99.873812 139.761875 99.166 
Q 139.761875 98.448813 139.888437 97.745688 
Q 140.015 97.042563 140.275937 96.392562 
Q 140.538437 95.742562 140.943125 95.176937 
Q 141.349375 94.60975 141.89 94.18475 
Q 141.89 94.166 141.94 94.166 
L 142.032187 94.166 
Q 142.061875 94.166 142.085312 94.192562 
Q 142.110312 94.219125 142.110312 94.2535 
Q 142.110312 94.29725 142.091562 94.317562 
Q 141.6025 94.795687 141.2775 95.342562 
Q 140.9525 95.889437 140.754063 96.508187 
Q 140.557187 97.125375 140.469687 97.787875 
Q 140.382187 98.448813 140.382187 99.166 
Q 140.382187 102.344125 142.080625 103.995688 
Q 142.110312 104.023812 142.110312 104.0785 
Q 142.110312 104.101937 142.08375 104.133187 
Q 142.057187 104.166 142.032187 104.166 
L 141.94 104.166 
Q 141.89 104.166 141.89 104.14725 
z
M 143.540586 100.5285 
Q 143.643711 100.820687 143.856211 101.061312 
Q 144.068711 101.300375 144.359336 101.43475 
Q 144.649961 101.567562 144.962461 101.567562 
Q 145.684336 101.567562 145.957773 101.006625 
Q 146.231211 100.445687 146.231211 99.644125 
Q 146.231211 99.29725 146.218711 99.061312 
Q 146.207773 98.823813 146.153086 98.605063 
Q 146.060898 98.2535 145.828086 97.989437 
Q 145.596836 97.725375 145.259336 97.725375 
Q 144.923398 97.725375 144.681211 97.8285 
Q 144.439023 97.930062 144.287461 98.067562 
Q 144.137461 98.2035 144.020273 98.355063 
Q 143.903086 98.506625 143.873398 98.516 
L 143.760898 98.516 
Q 143.735898 98.516 143.698398 98.48475 
Q 143.662461 98.4535 143.662461 98.423812 
L 143.662461 95.083187 
Q 143.662461 95.05975 143.693711 95.033187 
Q 143.726523 95.005062 143.760898 95.005062 
L 143.790586 95.005062 
Q 144.464023 95.3285 145.220273 95.3285 
Q 145.962461 95.3285 146.651523 95.005062 
L 146.681211 95.005062 
Q 146.715586 95.005062 146.743711 95.030062 
Q 146.773398 95.055062 146.773398 95.083187 
L 146.773398 95.176937 
Q 146.773398 95.225375 146.754648 95.225375 
Q 146.412461 95.680062 145.896836 95.93475 
Q 145.381211 96.187875 144.829648 96.187875 
Q 144.429648 96.187875 144.009336 96.075375 
L 144.009336 97.964438 
Q 144.342148 97.695687 144.603086 97.581625 
Q 144.864023 97.466 145.270273 97.466 
Q 145.821836 97.466 146.257773 97.78475 
Q 146.695273 98.101937 146.929648 98.612875 
Q 147.164023 99.12225 147.164023 99.6535 
Q 147.164023 100.255062 146.868711 100.767562 
Q 146.573398 101.280062 146.065586 101.583187 
Q 145.557773 101.886313 144.962461 101.886313 
Q 144.468711 101.886313 144.056211 101.633187 
Q 143.643711 101.3785 143.406211 100.948813 
Q 143.170273 100.519125 143.170273 100.03475 
Q 143.170273 99.80975 143.315586 99.669125 
Q 143.462461 99.526938 143.682773 99.526938 
Q 143.903086 99.526938 144.051523 99.67225 
Q 144.199961 99.816 144.199961 100.03475 
Q 144.199961 100.250375 144.051523 100.398812 
Q 143.903086 100.54725 143.682773 100.54725 
Q 143.648398 100.54725 143.604648 100.541 
Q 143.560898 100.533187 143.540586 100.5285 
z
M 148.662461 103.467562 
Q 148.662461 103.423812 148.701523 103.38475 
Q 149.064023 103.037875 149.264023 102.583187 
Q 149.464023 102.130062 149.464023 101.626937 
L 149.464023 101.505062 
Q 149.303086 101.666 149.064023 101.666 
Q 148.834336 101.666 148.673398 101.505062 
Q 148.512461 101.344125 148.512461 101.114437 
Q 148.512461 100.880062 148.673398 100.723812 
Q 148.834336 100.567562 149.064023 100.567562 
Q 149.420273 100.567562 149.571836 100.89725 
Q 149.723398 101.226937 149.723398 101.626937 
Q 149.723398 102.183188 149.499961 102.683188 
Q 149.278086 103.18475 148.873398 103.58475 
Q 148.834336 103.605063 148.809336 103.605063 
Q 148.760898 103.605063 148.710898 103.55975 
Q 148.662461 103.516 148.662461 103.467562 
z
M 153.147812 100.894125 
Q 153.382187 101.236312 153.7775 101.401938 
Q 154.174375 101.567562 154.6275 101.567562 
Q 155.20875 101.567562 155.4525 101.07225 
Q 155.697812 100.576937 155.697812 99.94725 
Q 155.697812 99.664437 155.64625 99.381625 
Q 155.594687 99.09725 155.472813 98.8535 
Q 155.350937 98.60975 155.138437 98.462875 
Q 154.925938 98.316 154.618125 98.316 
L 153.954062 98.316 
Q 153.866562 98.316 153.866562 98.223812 
L 153.866562 98.136313 
Q 153.866562 98.058188 153.954062 98.058188 
L 154.505625 98.012875 
Q 154.857187 98.012875 155.088437 97.750375 
Q 155.32125 97.486312 155.429062 97.108187 
Q 155.536875 96.730063 155.536875 96.387875 
Q 155.536875 95.90975 155.311875 95.601937 
Q 155.086875 95.294125 154.6275 95.294125 
Q 154.247812 95.294125 153.900937 95.437875 
Q 153.554062 95.581625 153.349375 95.875375 
Q 153.368125 95.870688 153.382187 95.867562 
Q 153.397812 95.864437 153.416562 95.864437 
Q 153.641562 95.864437 153.793125 96.020687 
Q 153.944687 96.176937 153.944687 96.39725 
Q 153.944687 96.612875 153.793125 96.769125 
Q 153.641562 96.925375 153.416562 96.925375 
Q 153.197812 96.925375 153.041562 96.769125 
Q 152.885312 96.612875 152.885312 96.39725 
Q 152.885312 95.967562 153.143125 95.650375 
Q 153.4025 95.333187 153.810312 95.169125 
Q 154.218125 95.005062 154.6275 95.005062 
Q 154.930625 95.005062 155.266562 95.095687 
Q 155.604062 95.186312 155.8775 95.355063 
Q 156.150937 95.523812 156.324375 95.787875 
Q 156.497812 96.050375 156.497812 96.387875 
Q 156.497812 96.808188 156.310312 97.164437 
Q 156.122812 97.520687 155.794687 97.780062 
Q 155.468125 98.037875 155.0775 98.164437 
Q 155.511875 98.24725 155.9025 98.492562 
Q 156.293125 98.736312 156.529062 99.117562 
Q 156.766562 99.49725 156.766562 99.937875 
Q 156.766562 100.489437 156.463437 100.936312 
Q 156.161875 101.383187 155.668125 101.63475 
Q 155.174375 101.886313 154.6275 101.886313 
Q 154.15875 101.886313 153.686875 101.706625 
Q 153.216562 101.5285 152.916562 101.17225 
Q 152.616562 100.816 152.616562 100.317562 
Q 152.616562 100.069125 152.782187 99.9035 
Q 152.947812 99.737875 153.197812 99.737875 
Q 153.35875 99.737875 153.493125 99.812875 
Q 153.6275 99.887875 153.7025 100.025375 
Q 153.779062 100.161312 153.779062 100.317562 
Q 153.779062 100.562875 153.607187 100.7285 
Q 153.436875 100.894125 153.197812 100.894125 
L 153.147812 100.894125 
z
M 157.84625 104.166 
Q 157.757187 104.166 157.757187 104.0785 
Q 157.757187 104.03475 157.7775 104.014437 
Q 159.486875 102.344125 159.486875 99.166 
Q 159.486875 95.987875 157.79625 94.336312 
Q 157.757187 94.312875 157.757187 94.2535 
Q 157.757187 94.219125 157.78375 94.192562 
Q 157.811875 94.166 157.84625 94.166 
L 157.938437 94.166 
Q 157.968125 94.166 157.986875 94.18475 
Q 158.705625 94.751937 159.18375 95.562875 
Q 159.661875 96.37225 159.88375 97.291 
Q 160.107188 98.208187 160.107188 99.166 
Q 160.107188 99.873812 159.986875 100.55975 
Q 159.866562 101.245688 159.605625 101.911312 
Q 159.344687 102.5785 158.944687 103.142562 
Q 158.544688 103.706625 157.986875 104.14725 
Q 157.968125 104.166 157.938437 104.166 
L 157.84625 104.166 
z
" style="fill: #1f77b4; stroke: #ffffff; stroke-width: 3"/>
    <path d="M 141.89 104.14725 
Q 141.33375 103.706625 140.930625 103.137875 
Q 140.529062 102.569125 140.27125 101.923812 
Q 140.015 101.280062 139.888437 100.576937 
Q 139.761875 99.873812 139.761875 99.166 
Q 139.761875 98.448813 139.888437 97.745688 
Q 140.015 97.042563 140.275937 96.392562 
Q 140.538437 95.742562 140.943125 95.176937 
Q 141.349375 94.60975 141.89 94.18475 
Q 141.89 94.166 141.94 94.166 
L 142.032187 94.166 
Q 142.061875 94.166 142.085312 94.192562 
Q 142.110312 94.219125 142.110312 94.2535 
Q 142.110312 94.29725 142.091562 94.317562 
Q 141.6025 94.795687 141.2775 95.342562 
Q 140.9525 95.889437 140.754063 96.508187 
Q 140.557187 97.125375 140.469687 97.787875 
Q 140.382187 98.448813 140.382187 99.166 
Q 140.382187 102.344125 142.080625 103.995688 
Q 142.110312 104.023812 142.110312 104.0785 
Q 142.110312 104.101937 142.08375 104.133187 
Q 142.057187 104.166 142.032187 104.166 
L 141.94 104.166 
Q 141.89 104.166 141.89 104.14725 
z
M 143.540586 100.5285 
Q 143.643711 100.820687 143.856211 101.061312 
Q 144.068711 101.300375 144.359336 101.43475 
Q 144.649961 101.567562 144.962461 101.567562 
Q 145.684336 101.567562 145.957773 101.006625 
Q 146.231211 100.445687 146.231211 99.644125 
Q 146.231211 99.29725 146.218711 99.061312 
Q 146.207773 98.823813 146.153086 98.605063 
Q 146.060898 98.2535 145.828086 97.989437 
Q 145.596836 97.725375 145.259336 97.725375 
Q 144.923398 97.725375 144.681211 97.8285 
Q 144.439023 97.930062 144.287461 98.067562 
Q 144.137461 98.2035 144.020273 98.355063 
Q 143.903086 98.506625 143.873398 98.516 
L 143.760898 98.516 
Q 143.735898 98.516 143.698398 98.48475 
Q 143.662461 98.4535 143.662461 98.423812 
L 143.662461 95.083187 
Q 143.662461 95.05975 143.693711 95.033187 
Q 143.726523 95.005062 143.760898 95.005062 
L 143.790586 95.005062 
Q 144.464023 95.3285 145.220273 95.3285 
Q 145.962461 95.3285 146.651523 95.005062 
L 146.681211 95.005062 
Q 146.715586 95.005062 146.743711 95.030062 
Q 146.773398 95.055062 146.773398 95.083187 
L 146.773398 95.176937 
Q 146.773398 95.225375 146.754648 95.225375 
Q 146.412461 95.680062 145.896836 95.93475 
Q 145.381211 96.187875 144.829648 96.187875 
Q 144.429648 96.187875 144.009336 96.075375 
L 144.009336 97.964438 
Q 144.342148 97.695687 144.603086 97.581625 
Q 144.864023 97.466 145.270273 97.466 
Q 145.821836 97.466 146.257773 97.78475 
Q 146.695273 98.101937 146.929648 98.612875 
Q 147.164023 99.12225 147.164023 99.6535 
Q 147.164023 100.255062 146.868711 100.767562 
Q 146.573398 101.280062 146.065586 101.583187 
Q 145.557773 101.886313 144.962461 101.886313 
Q 144.468711 101.886313 144.056211 101.633187 
Q 143.643711 101.3785 143.406211 100.948813 
Q 143.170273 100.519125 143.170273 100.03475 
Q 143.170273 99.80975 143.315586 99.669125 
Q 143.462461 99.526938 143.682773 99.526938 
Q 143.903086 99.526938 144.051523 99.67225 
Q 144.199961 99.816 144.199961 100.03475 
Q 144.199961 100.250375 144.051523 100.398812 
Q 143.903086 100.54725 143.682773 100.54725 
Q 143.648398 100.54725 143.604648 100.541 
Q 143.560898 100.533187 143.540586 100.5285 
z
M 148.662461 103.467562 
Q 148.662461 103.423812 148.701523 103.38475 
Q 149.064023 103.037875 149.264023 102.583187 
Q 149.464023 102.130062 149.464023 101.626937 
L 149.464023 101.505062 
Q 149.303086 101.666 149.064023 101.666 
Q 148.834336 101.666 148.673398 101.505062 
Q 148.512461 101.344125 148.512461 101.114437 
Q 148.512461 100.880062 148.673398 100.723812 
Q 148.834336 100.567562 149.064023 100.567562 
Q 149.420273 100.567562 149.571836 100.89725 
Q 149.723398 101.226937 149.723398 101.626937 
Q 149.723398 102.183188 149.499961 102.683188 
Q 149.278086 103.18475 148.873398 103.58475 
Q 148.834336 103.605063 148.809336 103.605063 
Q 148.760898 103.605063 148.710898 103.55975 
Q 148.662461 103.516 148.662461 103.467562 
z
M 153.147812 100.894125 
Q 153.382187 101.236312 153.7775 101.401938 
Q 154.174375 101.567562 154.6275 101.567562 
Q 155.20875 101.567562 155.4525 101.07225 
Q 155.697812 100.576937 155.697812 99.94725 
Q 155.697812 99.664437 155.64625 99.381625 
Q 155.594687 99.09725 155.472813 98.8535 
Q 155.350937 98.60975 155.138437 98.462875 
Q 154.925938 98.316 154.618125 98.316 
L 153.954062 98.316 
Q 153.866562 98.316 153.866562 98.223812 
L 153.866562 98.136313 
Q 153.866562 98.058188 153.954062 98.058188 
L 154.505625 98.012875 
Q 154.857187 98.012875 155.088437 97.750375 
Q 155.32125 97.486312 155.429062 97.108187 
Q 155.536875 96.730063 155.536875 96.387875 
Q 155.536875 95.90975 155.311875 95.601937 
Q 155.086875 95.294125 154.6275 95.294125 
Q 154.247812 95.294125 153.900937 95.437875 
Q 153.554062 95.581625 153.349375 95.875375 
Q 153.368125 95.870688 153.382187 95.867562 
Q 153.397812 95.864437 153.416562 95.864437 
Q 153.641562 95.864437 153.793125 96.020687 
Q 153.944687 96.176937 153.944687 96.39725 
Q 153.944687 96.612875 153.793125 96.769125 
Q 153.641562 96.925375 153.416562 96.925375 
Q 153.197812 96.925375 153.041562 96.769125 
Q 152.885312 96.612875 152.885312 96.39725 
Q 152.885312 95.967562 153.143125 95.650375 
Q 153.4025 95.333187 153.810312 95.169125 
Q 154.218125 95.005062 154.6275 95.005062 
Q 154.930625 95.005062 155.266562 95.095687 
Q 155.604062 95.186312 155.8775 95.355063 
Q 156.150937 95.523812 156.324375 95.787875 
Q 156.497812 96.050375 156.497812 96.387875 
Q 156.497812 96.808188 156.310312 97.164437 
Q 156.122812 97.520687 155.794687 97.780062 
Q 155.468125 98.037875 155.0775 98.164437 
Q 155.511875 98.24725 155.9025 98.492562 
Q 156.293125 98.736312 156.529062 99.117562 
Q 156.766562 99.49725 156.766562 99.937875 
Q 156.766562 100.489437 156.463437 100.936312 
Q 156.161875 101.383187 155.668125 101.63475 
Q 155.174375 101.886313 154.6275 101.886313 
Q 154.15875 101.886313 153.686875 101.706625 
Q 153.216562 101.5285 152.916562 101.17225 
Q 152.616562 100.816 152.616562 100.317562 
Q 152.616562 100.069125 152.782187 99.9035 
Q 152.947812 99.737875 153.197812 99.737875 
Q 153.35875 99.737875 153.493125 99.812875 
Q 153.6275 99.887875 153.7025 100.025375 
Q 153.779062 100.161312 153.779062 100.317562 
Q 153.779062 100.562875 153.607187 100.7285 
Q 153.436875 100.894125 153.197812 100.894125 
L 153.147812 100.894125 
z
M 157.84625 104.166 
Q 157.757187 104.166 157.757187 104.0785 
Q 157.757187 104.03475 157.7775 104.014437 
Q 159.486875 102.344125 159.486875 99.166 
Q 159.486875 95.987875 157.79625 94.336312 
Q 157.757187 94.312875 157.757187 94.2535 
Q 157.757187 94.219125 157.78375 94.192562 
Q 157.811875 94.166 157.84625 94.166 
L 157.938437 94.166 
Q 157.968125 94.166 157.986875 94.18475 
Q 158.705625 94.751937 159.18375 95.562875 
Q 159.661875 96.37225 159.88375 97.291 
Q 160.107188 98.208187 160.107188 99.166 
Q 160.107188 99.873812 159.986875 100.55975 
Q 159.866562 101.245688 159.605625 101.911312 
Q 159.344687 102.5785 158.944687 103.142562 
Q 158.544688 103.706625 157.986875 104.14725 
Q 157.968125 104.166 157.938437 104.166 
L 157.84625 104.166 
z
" style="fill: #1f77b4"/>
   </g>
  </g>
  <g id="axes_2">
   <g id="patch_5">
    <path d="M 226.35 203.85 
L 418.05 203.85 
L 418.05 12.15 
L 226.35 12.15 
z
" style="fill: #ffffff"/>
   </g>
   <g id="matplotlib.axis_3">
    <g id="xtick_12">
     <g id="line2d_45">
      <path d="M 226.35 203.85 
L 226.35 12.15 
" style="fill: none; stroke: #b0b0b0; stroke-width: 0.5; stroke-linecap: square"/>
     </g>
     <g id="line2d_46">
      <g>
       <use xlink:href="#m041e15ddbd" x="226.35" y="165.51" style="stroke: #000000; stroke-width: 0.8"/>
      </g>
     </g>
     <g id="text_12">
      <path d="M 224.4875 175.589688 
L 221.909375 175.589688 
L 221.909375 174.808438 
L 224.4875 174.808438 
L 224.4875 175.589688 
z
M 230.707227 178.152188 
L 225.688477 178.152188 
L 225.688477 177.3225 
Q 226.279102 175.945938 227.949414 174.808438 
L 228.227539 174.6225 
Q 229.082227 174.036563 229.350977 173.71 
Q 229.658789 173.324063 229.658789 172.869375 
Q 229.658789 172.356875 229.296289 171.995938 
Q 228.896289 171.595938 228.246289 171.595938 
Q 226.943164 171.595938 226.538477 173.050625 
L 225.766602 172.7725 
Q 226.322852 170.867813 228.296289 170.867813 
Q 229.374414 170.867813 230.015039 171.506875 
Q 230.575977 172.083438 230.575977 172.899063 
Q 230.575977 173.50375 230.215039 173.9975 
Q 229.882227 174.475625 228.686914 175.2225 
L 228.475977 175.350625 
Q 226.952539 176.292813 226.518164 177.361563 
L 230.707227 177.361563 
L 230.707227 178.152188 
z
" style="stroke: #ffffff; stroke-width: 3"/>
      <path d="M 224.4875 175.589688 
L 221.909375 175.589688 
L 221.909375 174.808438 
L 224.4875 174.808438 
L 224.4875 175.589688 
z
M 230.707227 178.152188 
L 225.688477 178.152188 
L 225.688477 177.3225 
Q 226.279102 175.945938 227.949414 174.808438 
L 228.227539 174.6225 
Q 229.082227 174.036563 229.350977 173.71 
Q 229.658789 173.324063 229.658789 172.869375 
Q 229.658789 172.356875 229.296289 171.995938 
Q 228.896289 171.595938 228.246289 171.595938 
Q 226.943164 171.595938 226.538477 173.050625 
L 225.766602 172.7725 
Q 226.322852 170.867813 228.296289 170.867813 
Q 229.374414 170.867813 230.015039 171.506875 
Q 230.575977 172.083438 230.575977 172.899063 
Q 230.575977 173.50375 230.215039 173.9975 
Q 229.882227 174.475625 228.686914 175.2225 
L 228.475977 175.350625 
Q 226.952539 176.292813 226.518164 177.361563 
L 230.707227 177.361563 
L 230.707227 178.152188 
z
"/>
     </g>
    </g>
    <g id="xtick_13">
     <g id="line2d_47">
      <path d="M 264.69 203.85 
L 264.69 12.15 
" style="fill: none; stroke: #b0b0b0; stroke-width: 0.5; stroke-linecap: square"/>
     </g>
     <g id="line2d_48">
      <g>
       <use xlink:href="#m041e15ddbd" x="264.69" y="165.51" style="stroke: #000000; stroke-width: 0.8"/>
      </g>
     </g>
    </g>
    <g id="xtick_14">
     <g id="line2d_49">
      <path d="M 303.03 203.85 
L 303.03 12.15 
" style="fill: none; stroke: #b0b0b0; stroke-width: 0.5; stroke-linecap: square"/>
     </g>
     <g id="line2d_50">
      <g>
       <use xlink:href="#m041e15ddbd" x="303.03" y="165.51" style="stroke: #000000; stroke-width: 0.8"/>
      </g>
     </g>
     <g id="text_13">
      <path d="M 305.597969 178.152188 
L 300.579219 178.152188 
L 300.579219 177.3225 
Q 301.169844 175.945938 302.840156 174.808438 
L 303.118281 174.6225 
Q 303.972969 174.036563 304.241719 173.71 
Q 304.549531 173.324063 304.549531 172.869375 
Q 304.549531 172.356875 304.187031 171.995938 
Q 303.787031 171.595938 303.137031 171.595938 
Q 301.833906 171.595938 301.429219 173.050625 
L 300.657344 172.7725 
Q 301.213594 170.867813 303.187031 170.867813 
Q 304.265156 170.867813 304.905781 171.506875 
Q 305.466719 172.083438 305.466719 172.899063 
Q 305.466719 173.50375 305.105781 173.9975 
Q 304.772969 174.475625 303.577656 175.2225 
L 303.366719 175.350625 
Q 301.843281 176.292813 301.408906 177.361563 
L 305.597969 177.361563 
L 305.597969 178.152188 
z
" style="stroke: #ffffff; stroke-width: 3"/>
      <path d="M 305.597969 178.152188 
L 300.579219 178.152188 
L 300.579219 177.3225 
Q 301.169844 175.945938 302.840156 174.808438 
L 303.118281 174.6225 
Q 303.972969 174.036563 304.241719 173.71 
Q 304.549531 173.324063 304.549531 172.869375 
Q 304.549531 172.356875 304.187031 171.995938 
Q 303.787031 171.595938 303.137031 171.595938 
Q 301.833906 171.595938 301.429219 173.050625 
L 300.657344 172.7725 
Q 301.213594 170.867813 303.187031 170.867813 
Q 304.265156 170.867813 304.905781 171.506875 
Q 305.466719 172.083438 305.466719 172.899063 
Q 305.466719 173.50375 305.105781 173.9975 
Q 304.772969 174.475625 303.577656 175.2225 
L 303.366719 175.350625 
Q 301.843281 176.292813 301.408906 177.361563 
L 305.597969 177.361563 
L 305.597969 178.152188 
z
"/>
     </g>
    </g>
    <g id="xtick_15">
     <g id="line2d_51">
      <path d="M 341.37 203.85 
L 341.37 12.15 
" style="fill: none; stroke: #b0b0b0; stroke-width: 0.5; stroke-linecap: square"/>
     </g>
     <g id="line2d_52">
      <g>
       <use xlink:href="#m041e15ddbd" x="341.37" y="165.51" style="stroke: #000000; stroke-width: 0.8"/>
      </g>
     </g>
     <g id="text_14">
      <path d="M 344.178594 176.439688 
L 343.000469 176.439688 
L 343.000469 178.152188 
L 342.200469 178.152188 
L 342.200469 176.439688 
L 338.528594 176.439688 
L 338.528594 175.638125 
L 342.058281 170.94125 
L 343.000469 170.94125 
L 343.000469 175.6975 
L 344.178594 175.6975 
L 344.178594 176.439688 
z
M 342.248906 171.830313 
L 342.219219 171.830313 
Q 341.780156 172.538125 341.350469 173.119375 
L 339.406719 175.6975 
L 342.200469 175.6975 
L 342.200469 173.338125 
Q 342.200469 172.811563 342.248906 171.830313 
z
" style="stroke: #ffffff; stroke-width: 3"/>
      <path d="M 344.178594 176.439688 
L 343.000469 176.439688 
L 343.000469 178.152188 
L 342.200469 178.152188 
L 342.200469 176.439688 
L 338.528594 176.439688 
L 338.528594 175.638125 
L 342.058281 170.94125 
L 343.000469 170.94125 
L 343.000469 175.6975 
L 344.178594 175.6975 
L 344.178594 176.439688 
z
M 342.248906 171.830313 
L 342.219219 171.830313 
Q 341.780156 172.538125 341.350469 173.119375 
L 339.406719 175.6975 
L 342.200469 175.6975 
L 342.200469 173.338125 
Q 342.200469 172.811563 342.248906 171.830313 
z
"/>
     </g>
    </g>
    <g id="xtick_16">
     <g id="line2d_53">
      <path d="M 379.71 203.85 
L 379.71 12.15 
" style="fill: none; stroke: #b0b0b0; stroke-width: 0.5; stroke-linecap: square"/>
     </g>
     <g id="line2d_54">
      <g>
       <use xlink:href="#m041e15ddbd" x="379.71" y="165.51" style="stroke: #000000; stroke-width: 0.8"/>
      </g>
     </g>
     <g id="text_15">
      <path d="M 378.210781 174.613125 
Q 378.918594 173.592813 380.051406 173.592813 
Q 381.101406 173.592813 381.742031 174.324063 
Q 382.302969 174.96 382.302969 175.8725 
Q 382.302969 176.869375 381.673281 177.5725 
Q 381.018594 178.299063 379.963906 178.299063 
Q 378.709219 178.299063 378.001406 177.342813 
Q 377.312344 176.41 377.312344 174.769375 
Q 377.312344 172.899063 378.143594 171.830313 
Q 378.895156 170.867813 380.110781 170.867813 
Q 381.546719 170.867813 382.199844 171.961563 
L 381.482656 172.352188 
Q 381.082656 171.585 380.154531 171.585 
Q 378.309219 171.585 378.171719 174.613125 
L 378.210781 174.613125 
z
M 379.906094 174.270938 
Q 379.192031 174.270938 378.723281 174.80375 
Q 378.304531 175.281875 378.304531 175.842813 
Q 378.304531 176.444375 378.674844 176.931875 
Q 379.173281 177.581875 379.934219 177.581875 
Q 380.731094 177.581875 381.156094 176.931875 
Q 381.443594 176.488125 381.443594 175.902188 
Q 381.443594 175.213125 381.062344 174.769375 
Q 380.623281 174.270938 379.906094 174.270938 
z
" style="stroke: #ffffff; stroke-width: 3"/>
      <path d="M 378.210781 174.613125 
Q 378.918594 173.592813 380.051406 173.592813 
Q 381.101406 173.592813 381.742031 174.324063 
Q 382.302969 174.96 382.302969 175.8725 
Q 382.302969 176.869375 381.673281 177.5725 
Q 381.018594 178.299063 379.963906 178.299063 
Q 378.709219 178.299063 378.001406 177.342813 
Q 377.312344 176.41 377.312344 174.769375 
Q 377.312344 172.899063 378.143594 171.830313 
Q 378.895156 170.867813 380.110781 170.867813 
Q 381.546719 170.867813 382.199844 171.961563 
L 381.482656 172.352188 
Q 381.082656 171.585 380.154531 171.585 
Q 378.309219 171.585 378.171719 174.613125 
L 378.210781 174.613125 
z
M 379.906094 174.270938 
Q 379.192031 174.270938 378.723281 174.80375 
Q 378.304531 175.281875 378.304531 175.842813 
Q 378.304531 176.444375 378.674844 176.931875 
Q 379.173281 177.581875 379.934219 177.581875 
Q 380.731094 177.581875 381.156094 176.931875 
Q 381.443594 176.488125 381.443594 175.902188 
Q 381.443594 175.213125 381.062344 174.769375 
Q 380.623281 174.270938 379.906094 174.270938 
z
"/>
     </g>
    </g>
    <g id="xtick_17">
     <g id="line2d_55">
      <path d="M 418.05 203.85 
L 418.05 12.15 
" style="fill: none; stroke: #b0b0b0; stroke-width: 0.5; stroke-linecap: square"/>
     </g>
     <g id="line2d_56">
      <g>
       <use xlink:href="#m041e15ddbd" x="418.05" y="165.51" style="stroke: #000000; stroke-width: 0.8"/>
      </g>
     </g>
     <g id="text_16">
      <path d="M 418.871094 174.461563 
Q 420.682031 175.077188 420.682031 176.380313 
Q 420.682031 177.405313 419.744531 177.942813 
Q 419.061719 178.338125 418.050781 178.338125 
Q 417.035156 178.338125 416.350781 177.942813 
Q 415.442969 177.420938 415.442969 176.41 
Q 415.442969 175.144375 417.102344 174.530313 
L 417.102344 174.500625 
Q 415.652344 173.97875 415.652344 172.767813 
Q 415.652344 171.844375 416.433594 171.288125 
Q 417.097656 170.819375 418.055469 170.819375 
Q 419.124219 170.819375 419.792969 171.370938 
Q 420.452344 171.892813 420.452344 172.67875 
Q 420.452344 174.0225 418.871094 174.431875 
L 418.871094 174.461563 
z
M 418.060156 174.149063 
Q 419.583594 173.788125 419.583594 172.738125 
Q 419.583594 172.131875 419.080469 171.76625 
Q 418.671094 171.458438 418.050781 171.458438 
Q 417.410156 171.458438 416.980469 171.800625 
Q 416.541406 172.161563 416.541406 172.7475 
Q 416.541406 173.32875 417.010156 173.680313 
Q 417.235156 173.861563 417.591406 173.9975 
Q 418.000781 174.163125 418.060156 174.149063 
z
M 417.991406 174.799063 
Q 416.341406 175.233438 416.341406 176.350625 
Q 416.341406 177.039688 416.952344 177.381875 
Q 417.410156 177.639688 418.039844 177.639688 
Q 418.924219 177.639688 419.402344 177.161563 
Q 419.753906 176.81 419.753906 176.2975 
Q 419.753906 175.76 419.266406 175.36 
Q 418.977344 175.135 418.572656 174.969375 
Q 418.099219 174.77875 417.991406 174.799063 
z
" style="stroke: #ffffff; stroke-width: 3"/>
      <path d="M 418.871094 174.461563 
Q 420.682031 175.077188 420.682031 176.380313 
Q 420.682031 177.405313 419.744531 177.942813 
Q 419.061719 178.338125 418.050781 178.338125 
Q 417.035156 178.338125 416.350781 177.942813 
Q 415.442969 177.420938 415.442969 176.41 
Q 415.442969 175.144375 417.102344 174.530313 
L 417.102344 174.500625 
Q 415.652344 173.97875 415.652344 172.767813 
Q 415.652344 171.844375 416.433594 171.288125 
Q 417.097656 170.819375 418.055469 170.819375 
Q 419.124219 170.819375 419.792969 171.370938 
Q 420.452344 171.892813 420.452344 172.67875 
Q 420.452344 174.0225 418.871094 174.431875 
L 418.871094 174.461563 
z
M 418.060156 174.149063 
Q 419.583594 173.788125 419.583594 172.738125 
Q 419.583594 172.131875 419.080469 171.76625 
Q 418.671094 171.458438 418.050781 171.458438 
Q 417.410156 171.458438 416.980469 171.800625 
Q 416.541406 172.161563 416.541406 172.7475 
Q 416.541406 173.32875 417.010156 173.680313 
Q 417.235156 173.861563 417.591406 173.9975 
Q 418.000781 174.163125 418.060156 174.149063 
z
M 417.991406 174.799063 
Q 416.341406 175.233438 416.341406 176.350625 
Q 416.341406 177.039688 416.952344 177.381875 
Q 417.410156 177.639688 418.039844 177.639688 
Q 418.924219 177.639688 419.402344 177.161563 
Q 419.753906 176.81 419.753906 176.2975 
Q 419.753906 175.76 419.266406 175.36 
Q 418.977344 175.135 418.572656 174.969375 
Q 418.099219 174.77875 417.991406 174.799063 
z
"/>
     </g>
    </g>
    <g id="xtick_18">
     <g id="line2d_57">
      <path d="M 245.52 203.85 
L 245.52 12.15 
" style="fill: none; stroke: #b0b0b0; stroke-width: 0.5; stroke-linecap: square"/>
     </g>
     <g id="line2d_58">
      <g>
       <use xlink:href="#mad0fbfc4dc" x="245.52" y="165.51" style="stroke: #000000; stroke-width: 0.6"/>
      </g>
     </g>
    </g>
    <g id="xtick_19">
     <g id="line2d_59">
      <path d="M 283.86 203.85 
L 283.86 12.15 
" style="fill: none; stroke: #b0b0b0; stroke-width: 0.5; stroke-linecap: square"/>
     </g>
     <g id="line2d_60">
      <g>
       <use xlink:href="#mad0fbfc4dc" x="283.86" y="165.51" style="stroke: #000000; stroke-width: 0.6"/>
      </g>
     </g>
    </g>
    <g id="xtick_20">
     <g id="line2d_61">
      <path d="M 322.2 203.85 
L 322.2 12.15 
" style="fill: none; stroke: #b0b0b0; stroke-width: 0.5; stroke-linecap: square"/>
     </g>
     <g id="line2d_62">
      <g>
       <use xlink:href="#mad0fbfc4dc" x="322.2" y="165.51" style="stroke: #000000; stroke-width: 0.6"/>
      </g>
     </g>
    </g>
    <g id="xtick_21">
     <g id="line2d_63">
      <path d="M 360.54 203.85 
L 360.54 12.15 
" style="fill: none; stroke: #b0b0b0; stroke-width: 0.5; stroke-linecap: square"/>
     </g>
     <g id="line2d_64">
      <g>
       <use xlink:href="#mad0fbfc4dc" x="360.54" y="165.51" style="stroke: #000000; stroke-width: 0.6"/>
      </g>
     </g>
    </g>
    <g id="xtick_22">
     <g id="line2d_65">
      <path d="M 398.88 203.85 
L 398.88 12.15 
" style="fill: none; stroke: #b0b0b0; stroke-width: 0.5; stroke-linecap: square"/>
     </g>
     <g id="line2d_66">
      <g>
       <use xlink:href="#mad0fbfc4dc" x="398.88" y="165.51" style="stroke: #000000; stroke-width: 0.6"/>
      </g>
     </g>
    </g>
   </g>
   <g id="matplotlib.axis_4">
    <g id="ytick_12">
     <g id="line2d_67">
      <path d="M 226.35 203.85 
L 418.05 203.85 
" style="fill: none; stroke: #b0b0b0; stroke-width: 0.5; stroke-linecap: square"/>
     </g>
     <g id="line2d_68">
      <g>
       <use xlink:href="#m942942e6e2" x="264.69" y="203.85" style="stroke: #000000; stroke-width: 0.8"/>
      </g>
     </g>
     <g id="text_17">
      <path d="M 252.638437 204.934375 
L 250.060312 204.934375 
L 250.060312 204.153125 
L 252.638437 204.153125 
L 252.638437 204.934375 
z
M 258.858164 207.496875 
L 253.839414 207.496875 
L 253.839414 206.667188 
Q 254.430039 205.290625 256.100352 204.153125 
L 256.378477 203.967187 
Q 257.233164 203.38125 257.501914 203.054688 
Q 257.809727 202.66875 257.809727 202.214063 
Q 257.809727 201.701562 257.447227 201.340625 
Q 257.047227 200.940625 256.397227 200.940625 
Q 255.094102 200.940625 254.689414 202.395313 
L 253.917539 202.117188 
Q 254.473789 200.2125 256.447227 200.2125 
Q 257.525352 200.2125 258.165977 200.851562 
Q 258.726914 201.428125 258.726914 202.24375 
Q 258.726914 202.848438 258.365977 203.342187 
Q 258.033164 203.820312 256.837852 204.567188 
L 256.626914 204.695312 
Q 255.103477 205.6375 254.669102 206.70625 
L 258.858164 206.70625 
L 258.858164 207.496875 
z
" style="stroke: #ffffff; stroke-width: 3"/>
      <path d="M 252.638437 204.934375 
L 250.060312 204.934375 
L 250.060312 204.153125 
L 252.638437 204.153125 
L 252.638437 204.934375 
z
M 258.858164 207.496875 
L 253.839414 207.496875 
L 253.839414 206.667188 
Q 254.430039 205.290625 256.100352 204.153125 
L 256.378477 203.967187 
Q 257.233164 203.38125 257.501914 203.054688 
Q 257.809727 202.66875 257.809727 202.214063 
Q 257.809727 201.701562 257.447227 201.340625 
Q 257.047227 200.940625 256.397227 200.940625 
Q 255.094102 200.940625 254.689414 202.395313 
L 253.917539 202.117188 
Q 254.473789 200.2125 256.447227 200.2125 
Q 257.525352 200.2125 258.165977 200.851562 
Q 258.726914 201.428125 258.726914 202.24375 
Q 258.726914 202.848438 258.365977 203.342187 
Q 258.033164 203.820312 256.837852 204.567188 
L 256.626914 204.695312 
Q 255.103477 205.6375 254.669102 206.70625 
L 258.858164 206.70625 
L 258.858164 207.496875 
z
"/>
     </g>
    </g>
    <g id="ytick_13">
     <g id="line2d_69">
      <path d="M 226.35 165.51 
L 418.05 165.51 
" style="fill: none; stroke: #b0b0b0; stroke-width: 0.5; stroke-linecap: square"/>
     </g>
     <g id="line2d_70">
      <g>
       <use xlink:href="#m942942e6e2" x="264.69" y="165.51" style="stroke: #000000; stroke-width: 0.8"/>
      </g>
     </g>
    </g>
    <g id="ytick_14">
     <g id="line2d_71">
      <path d="M 226.35 127.17 
L 418.05 127.17 
" style="fill: none; stroke: #b0b0b0; stroke-width: 0.5; stroke-linecap: square"/>
     </g>
     <g id="line2d_72">
      <g>
       <use xlink:href="#m942942e6e2" x="264.69" y="127.17" style="stroke: #000000; stroke-width: 0.8"/>
      </g>
     </g>
     <g id="text_18">
      <path d="M 258.85875 130.816875 
L 253.84 130.816875 
L 253.84 129.987188 
Q 254.430625 128.610625 256.100937 127.473125 
L 256.379062 127.287188 
Q 257.23375 126.70125 257.5025 126.374687 
Q 257.810313 125.98875 257.810313 125.534063 
Q 257.810313 125.021563 257.447812 124.660625 
Q 257.047812 124.260625 256.397812 124.260625 
Q 255.094687 124.260625 254.69 125.715312 
L 253.918125 125.437187 
Q 254.474375 123.5325 256.447812 123.5325 
Q 257.525937 123.5325 258.166562 124.171562 
Q 258.7275 124.748125 258.7275 125.56375 
Q 258.7275 126.168437 258.366562 126.662188 
Q 258.03375 127.140312 256.838437 127.887187 
L 256.6275 128.015312 
Q 255.104062 128.9575 254.669687 130.02625 
L 258.85875 130.02625 
L 258.85875 130.816875 
z
" style="stroke: #ffffff; stroke-width: 3"/>
      <path d="M 258.85875 130.816875 
L 253.84 130.816875 
L 253.84 129.987188 
Q 254.430625 128.610625 256.100937 127.473125 
L 256.379062 127.287188 
Q 257.23375 126.70125 257.5025 126.374687 
Q 257.810313 125.98875 257.810313 125.534063 
Q 257.810313 125.021563 257.447812 124.660625 
Q 257.047812 124.260625 256.397812 124.260625 
Q 255.094687 124.260625 254.69 125.715312 
L 253.918125 125.437187 
Q 254.474375 123.5325 256.447812 123.5325 
Q 257.525937 123.5325 258.166562 124.171562 
Q 258.7275 124.748125 258.7275 125.56375 
Q 258.7275 126.168437 258.366562 126.662188 
Q 258.03375 127.140312 256.838437 127.887187 
L 256.6275 128.015312 
Q 255.104062 128.9575 254.669687 130.02625 
L 258.85875 130.02625 
L 258.85875 130.816875 
z
"/>
     </g>
    </g>
    <g id="ytick_15">
     <g id="line2d_73">
      <path d="M 226.35 88.83 
L 418.05 88.83 
" style="fill: none; stroke: #b0b0b0; stroke-width: 0.5; stroke-linecap: square"/>
     </g>
     <g id="line2d_74">
      <g>
       <use xlink:href="#m942942e6e2" x="264.69" y="88.83" style="stroke: #000000; stroke-width: 0.8"/>
      </g>
     </g>
     <g id="text_19">
      <path d="M 259.099375 90.764375 
L 257.92125 90.764375 
L 257.92125 92.476875 
L 257.12125 92.476875 
L 257.12125 90.764375 
L 253.449375 90.764375 
L 253.449375 89.962813 
L 256.979062 85.265938 
L 257.92125 85.265938 
L 257.92125 90.022188 
L 259.099375 90.022188 
L 259.099375 90.764375 
z
M 257.169688 86.155 
L 257.14 86.155 
Q 256.700938 86.862813 256.27125 87.444063 
L 254.3275 90.022188 
L 257.12125 90.022188 
L 257.12125 87.662813 
Q 257.12125 87.13625 257.169688 86.155 
z
" style="stroke: #ffffff; stroke-width: 3"/>
      <path d="M 259.099375 90.764375 
L 257.92125 90.764375 
L 257.92125 92.476875 
L 257.12125 92.476875 
L 257.12125 90.764375 
L 253.449375 90.764375 
L 253.449375 89.962813 
L 256.979062 85.265938 
L 257.92125 85.265938 
L 257.92125 90.022188 
L 259.099375 90.022188 
L 259.099375 90.764375 
z
M 257.169688 86.155 
L 257.14 86.155 
Q 256.700938 86.862813 256.27125 87.444063 
L 254.3275 90.022188 
L 257.12125 90.022188 
L 257.12125 87.662813 
Q 257.12125 87.13625 257.169688 86.155 
z
"/>
     </g>
    </g>
    <g id="ytick_16">
     <g id="line2d_75">
      <path d="M 226.35 50.49 
L 418.05 50.49 
" style="fill: none; stroke: #b0b0b0; stroke-width: 0.5; stroke-linecap: square"/>
     </g>
     <g id="line2d_76">
      <g>
       <use xlink:href="#m942942e6e2" x="264.69" y="50.49" style="stroke: #000000; stroke-width: 0.8"/>
      </g>
     </g>
     <g id="text_20">
      <path d="M 254.791562 50.597813 
Q 255.499375 49.5775 256.632187 49.5775 
Q 257.682187 49.5775 258.322812 50.30875 
Q 258.88375 50.944688 258.88375 51.857188 
Q 258.88375 52.854063 258.254062 53.557188 
Q 257.599375 54.28375 256.544688 54.28375 
Q 255.29 54.28375 254.582188 53.3275 
Q 253.893125 52.394688 253.893125 50.754063 
Q 253.893125 48.88375 254.724375 47.815 
Q 255.475937 46.8525 256.691562 46.8525 
Q 258.1275 46.8525 258.780625 47.94625 
L 258.063437 48.336875 
Q 257.663437 47.569688 256.735312 47.569688 
Q 254.89 47.569688 254.7525 50.597813 
L 254.791562 50.597813 
z
M 256.486875 50.255625 
Q 255.772812 50.255625 255.304062 50.788438 
Q 254.885312 51.266563 254.885312 51.8275 
Q 254.885312 52.429063 255.255625 52.916563 
Q 255.754063 53.566563 256.515 53.566563 
Q 257.311875 53.566563 257.736875 52.916563 
Q 258.024375 52.472813 258.024375 51.886875 
Q 258.024375 51.197813 257.643125 50.754063 
Q 257.204062 50.255625 256.486875 50.255625 
z
" style="stroke: #ffffff; stroke-width: 3"/>
      <path d="M 254.791562 50.597813 
Q 255.499375 49.5775 256.632187 49.5775 
Q 257.682187 49.5775 258.322812 50.30875 
Q 258.88375 50.944688 258.88375 51.857188 
Q 258.88375 52.854063 258.254062 53.557188 
Q 257.599375 54.28375 256.544688 54.28375 
Q 255.29 54.28375 254.582188 53.3275 
Q 253.893125 52.394688 253.893125 50.754063 
Q 253.893125 48.88375 254.724375 47.815 
Q 255.475937 46.8525 256.691562 46.8525 
Q 258.1275 46.8525 258.780625 47.94625 
L 258.063437 48.336875 
Q 257.663437 47.569688 256.735312 47.569688 
Q 254.89 47.569688 254.7525 50.597813 
L 254.791562 50.597813 
z
M 256.486875 50.255625 
Q 255.772812 50.255625 255.304062 50.788438 
Q 254.885312 51.266563 254.885312 51.8275 
Q 254.885312 52.429063 255.255625 52.916563 
Q 255.754063 53.566563 256.515 53.566563 
Q 257.311875 53.566563 257.736875 52.916563 
Q 258.024375 52.472813 258.024375 51.886875 
Q 258.024375 51.197813 257.643125 50.754063 
Q 257.204062 50.255625 256.486875 50.255625 
z
"/>
     </g>
    </g>
    <g id="ytick_17">
     <g id="line2d_77">
      <path d="M 226.35 12.15 
L 418.05 12.15 
" style="fill: none; stroke: #b0b0b0; stroke-width: 0.5; stroke-linecap: square"/>
     </g>
     <g id="line2d_78">
      <g>
       <use xlink:href="#m942942e6e2" x="264.69" y="12.15" style="stroke: #000000; stroke-width: 0.8"/>
      </g>
     </g>
     <g id="text_21">
      <path d="M 257.111875 12.10625 
Q 258.922812 12.721875 258.922812 14.025 
Q 258.922812 15.05 257.985312 15.5875 
Q 257.3025 15.982813 256.291562 15.982813 
Q 255.275937 15.982813 254.591562 15.5875 
Q 253.68375 15.065625 253.68375 14.054688 
Q 253.68375 12.789063 255.343125 12.175 
L 255.343125 12.145313 
Q 253.893125 11.623438 253.893125 10.4125 
Q 253.893125 9.489063 254.674375 8.932813 
Q 255.338437 8.464063 256.29625 8.464063 
Q 257.365 8.464063 258.03375 9.015625 
Q 258.693125 9.5375 258.693125 10.323438 
Q 258.693125 11.667188 257.111875 12.076563 
L 257.111875 12.10625 
z
M 256.300937 11.79375 
Q 257.824375 11.432813 257.824375 10.382813 
Q 257.824375 9.776563 257.32125 9.410938 
Q 256.911875 9.103125 256.291562 9.103125 
Q 255.650937 9.103125 255.22125 9.445313 
Q 254.782187 9.80625 254.782187 10.392188 
Q 254.782187 10.973438 255.250937 11.325 
Q 255.475937 11.50625 255.832188 11.642188 
Q 256.241562 11.807813 256.300937 11.79375 
z
M 256.232188 12.44375 
Q 254.582188 12.878125 254.582188 13.995313 
Q 254.582188 14.684375 255.193125 15.026563 
Q 255.650937 15.284375 256.280625 15.284375 
Q 257.165 15.284375 257.643125 14.80625 
Q 257.994687 14.454688 257.994687 13.942188 
Q 257.994687 13.404688 257.507187 13.004688 
Q 257.218125 12.779688 256.813437 12.614063 
Q 256.34 12.423438 256.232188 12.44375 
z
" style="stroke: #ffffff; stroke-width: 3"/>
      <path d="M 257.111875 12.10625 
Q 258.922812 12.721875 258.922812 14.025 
Q 258.922812 15.05 257.985312 15.5875 
Q 257.3025 15.982813 256.291562 15.982813 
Q 255.275937 15.982813 254.591562 15.5875 
Q 253.68375 15.065625 253.68375 14.054688 
Q 253.68375 12.789063 255.343125 12.175 
L 255.343125 12.145313 
Q 253.893125 11.623438 253.893125 10.4125 
Q 253.893125 9.489063 254.674375 8.932813 
Q 255.338437 8.464063 256.29625 8.464063 
Q 257.365 8.464063 258.03375 9.015625 
Q 258.693125 9.5375 258.693125 10.323438 
Q 258.693125 11.667188 257.111875 12.076563 
L 257.111875 12.10625 
z
M 256.300937 11.79375 
Q 257.824375 11.432813 257.824375 10.382813 
Q 257.824375 9.776563 257.32125 9.410938 
Q 256.911875 9.103125 256.291562 9.103125 
Q 255.650937 9.103125 255.22125 9.445313 
Q 254.782187 9.80625 254.782187 10.392188 
Q 254.782187 10.973438 255.250937 11.325 
Q 255.475937 11.50625 255.832188 11.642188 
Q 256.241562 11.807813 256.300937 11.79375 
z
M 256.232188 12.44375 
Q 254.582188 12.878125 254.582188 13.995313 
Q 254.582188 14.684375 255.193125 15.026563 
Q 255.650937 15.284375 256.280625 15.284375 
Q 257.165 15.284375 257.643125 14.80625 
Q 257.994687 14.454688 257.994687 13.942188 
Q 257.994687 13.404688 257.507187 13.004688 
Q 257.218125 12.779688 256.813437 12.614063 
Q 256.34 12.423438 256.232188 12.44375 
z
"/>
     </g>
    </g>
    <g id="ytick_18">
     <g id="line2d_79">
      <path d="M 226.35 184.68 
L 418.05 184.68 
" style="fill: none; stroke: #b0b0b0; stroke-width: 0.5; stroke-linecap: square"/>
     </g>
     <g id="line2d_80">
      <g>
       <use xlink:href="#m50f261c5af" x="264.69" y="184.68" style="stroke: #000000; stroke-width: 0.6"/>
      </g>
     </g>
    </g>
    <g id="ytick_19">
     <g id="line2d_81">
      <path d="M 226.35 146.34 
L 418.05 146.34 
" style="fill: none; stroke: #b0b0b0; stroke-width: 0.5; stroke-linecap: square"/>
     </g>
     <g id="line2d_82">
      <g>
       <use xlink:href="#m50f261c5af" x="264.69" y="146.34" style="stroke: #000000; stroke-width: 0.6"/>
      </g>
     </g>
    </g>
    <g id="ytick_20">
     <g id="line2d_83">
      <path d="M 226.35 108 
L 418.05 108 
" style="fill: none; stroke: #b0b0b0; stroke-width: 0.5; stroke-linecap: square"/>
     </g>
     <g id="line2d_84">
      <g>
       <use xlink:href="#m50f261c5af" x="264.69" y="108" style="stroke: #000000; stroke-width: 0.6"/>
      </g>
     </g>
    </g>
    <g id="ytick_21">
     <g id="line2d_85">
      <path d="M 226.35 69.66 
L 418.05 69.66 
" style="fill: none; stroke: #b0b0b0; stroke-width: 0.5; stroke-linecap: square"/>
     </g>
     <g id="line2d_86">
      <g>
       <use xlink:href="#m50f261c5af" x="264.69" y="69.66" style="stroke: #000000; stroke-width: 0.6"/>
      </g>
     </g>
    </g>
    <g id="ytick_22">
     <g id="line2d_87">
      <path d="M 226.35 31.32 
L 418.05 31.32 
" style="fill: none; stroke: #b0b0b0; stroke-width: 0.5; stroke-linecap: square"/>
     </g>
     <g id="line2d_88">
      <g>
       <use xlink:href="#m50f261c5af" x="264.69" y="31.32" style="stroke: #000000; stroke-width: 0.6"/>
      </g>
     </g>
    </g>
   </g>
   <g id="PathCollection_3">
    <g clip-path="url(#pa22318580c)">
     <use xlink:href="#mc26fa2a54d" x="360.54" y="108" style="fill: #1f77b4; stroke: #1f77b4"/>
    </g>
   </g>
   <g id="PathCollection_4">
    <g clip-path="url(#pa22318580c)">
     <use xlink:href="#m6771912944" x="264.69" y="165.51" style="stroke: #000000"/>
    </g>
   </g>
   <g id="patch_6">
    <path d="M 264.69 203.85 
L 264.69 12.15 
" style="fill: none; stroke: #000000; stroke-width: 0.8; stroke-linejoin: miter; stroke-linecap: square"/>
   </g>
   <g id="patch_7">
    <path d="M 226.35 165.51 
L 418.05 165.51 
" style="fill: none; stroke: #000000; stroke-width: 0.8; stroke-linejoin: miter; stroke-linecap: square"/>
   </g>
   <g id="text_22">
    <path d="M 342.279404 95.1535 
Q 342.201279 95.1535 342.149717 95.095687 
Q 342.099717 95.036312 342.099717 94.951937 
Q 342.099717 94.880062 342.149717 94.819125 
Q 342.201279 94.756625 342.279404 94.756625 
L 345.820029 94.756625 
Q 345.555967 94.400375 345.555967 94.166 
Q 345.555967 94.0785 345.616904 94.02225 
Q 345.677842 93.966 345.755967 93.966 
Q 345.923154 93.966 345.955967 94.12225 
Q 346.054404 94.551937 346.430967 94.786312 
Q 346.527842 94.850375 346.527842 94.951937 
Q 346.527842 95.075375 346.430967 95.123812 
Q 345.863779 95.406625 345.516904 95.875375 
Q 345.477842 95.944125 345.365342 95.944125 
Q 345.291904 95.944125 345.227842 95.886313 
Q 345.165342 95.826937 345.165342 95.744125 
Q 345.165342 95.562875 345.649717 95.1535 
L 342.279404 95.1535 
z
M 342.35875 100.494125 
Q 342.35875 100.269125 342.411875 100.001937 
Q 342.466562 99.733187 342.519687 99.55975 
Q 342.574375 99.386313 342.765 98.883187 
Q 342.955625 98.380062 342.960312 98.35975 
Q 343.091562 97.994125 343.091562 97.75975 
Q 343.091562 97.461312 342.872812 97.461312 
Q 342.475937 97.461312 342.219687 97.869125 
Q 341.963437 98.276938 341.841562 98.780062 
Q 341.822812 98.844125 341.75875 98.844125 
L 341.641562 98.844125 
Q 341.55875 98.844125 341.55875 98.750375 
L 341.55875 98.72225 
Q 341.719687 98.125375 342.050937 97.664437 
Q 342.38375 97.2035 342.891562 97.2035 
Q 343.247812 97.2035 343.494687 97.437875 
Q 343.741562 97.67225 343.741562 98.033187 
Q 343.741562 98.219125 343.65875 98.423812 
Q 343.463437 98.931625 343.350937 99.237875 
Q 343.238437 99.542563 343.143125 99.920687 
Q 343.047812 100.298812 343.047812 100.620688 
Q 343.047812 100.99725 343.22125 101.23475 
Q 343.394687 101.470687 343.760312 101.470687 
Q 344.454062 101.470687 345.010312 100.401938 
Q 345.186875 100.055062 345.343125 99.586312 
Q 345.499375 99.117562 345.499375 98.823813 
Q 345.499375 98.52225 345.400937 98.3535 
Q 345.304062 98.18475 345.147812 98.001937 
Q 344.991562 97.819125 344.991562 97.711312 
Q 344.991562 97.516 345.1525 97.355063 
Q 345.313437 97.194125 345.50875 97.194125 
Q 345.747812 97.194125 345.8525 97.414437 
Q 345.95875 97.633187 345.95875 97.911312 
Q 345.95875 98.242562 345.863437 98.701937 
Q 345.768125 99.161312 345.599375 99.655062 
Q 345.430625 100.14725 345.288437 100.430062 
Q 344.630625 101.73475 343.750937 101.73475 
Q 343.12125 101.73475 342.74 101.420687 
Q 342.35875 101.105063 342.35875 100.494125 
z
M 348.636289 100.294125 
Q 348.553477 100.294125 348.498789 100.231625 
Q 348.445664 100.167563 348.445664 100.094125 
Q 348.445664 100.011313 348.498789 99.9535 
Q 348.553477 99.894125 348.636289 99.894125 
L 354.915977 99.894125 
Q 354.989414 99.894125 355.042539 99.9535 
Q 355.097227 100.011313 355.097227 100.094125 
Q 355.097227 100.167563 355.042539 100.231625 
Q 354.989414 100.294125 354.915977 100.294125 
L 348.636289 100.294125 
z
M 348.636289 98.350375 
Q 348.553477 98.350375 348.498789 98.292563 
Q 348.445664 98.233187 348.445664 98.150375 
Q 348.445664 98.076937 348.498789 98.014437 
Q 348.553477 97.950375 348.636289 97.950375 
L 354.915977 97.950375 
Q 354.989414 97.950375 355.042539 98.014437 
Q 355.097227 98.076937 355.097227 98.150375 
Q 355.097227 98.233187 355.042539 98.292563 
Q 354.989414 98.350375 354.915977 98.350375 
L 348.636289 98.350375 
z
M 360.509141 104.1035 
Q 359.952891 103.662875 359.549766 103.094125 
Q 359.148203 102.525375 358.890391 101.880062 
Q 358.634141 101.236312 358.507578 100.533187 
Q 358.381016 99.830062 358.381016 99.12225 
Q 358.381016 98.405062 358.507578 97.701937 
Q 358.634141 96.998812 358.895078 96.348812 
Q 359.157578 95.698813 359.562266 95.133187 
Q 359.968516 94.566 360.509141 94.141 
Q 360.509141 94.12225 360.559141 94.12225 
L 360.651328 94.12225 
Q 360.681016 94.12225 360.704453 94.148812 
Q 360.729453 94.175375 360.729453 94.20975 
Q 360.729453 94.2535 360.710703 94.273812 
Q 360.221641 94.751937 359.896641 95.298812 
Q 359.571641 95.845687 359.373203 96.464438 
Q 359.176328 97.081625 359.088828 97.744125 
Q 359.001328 98.405062 359.001328 99.12225 
Q 359.001328 102.300375 360.699766 103.951937 
Q 360.729453 103.980063 360.729453 104.03475 
Q 360.729453 104.058188 360.702891 104.089438 
Q 360.676328 104.12225 360.651328 104.12225 
L 360.559141 104.12225 
Q 360.509141 104.12225 360.509141 104.1035 
z
M 362.159727 100.48475 
Q 362.262852 100.776938 362.475352 101.017562 
Q 362.687852 101.256625 362.978477 101.391 
Q 363.269102 101.523812 363.581602 101.523812 
Q 364.303477 101.523812 364.576914 100.962875 
Q 364.850352 100.401938 364.850352 99.600375 
Q 364.850352 99.2535 364.837852 99.017562 
Q 364.826914 98.780062 364.772227 98.561312 
Q 364.680039 98.20975 364.447227 97.945687 
Q 364.215977 97.681625 363.878477 97.681625 
Q 363.542539 97.681625 363.300352 97.78475 
Q 363.058164 97.886313 362.906602 98.023812 
Q 362.756602 98.15975 362.639414 98.311312 
Q 362.522227 98.462875 362.492539 98.47225 
L 362.380039 98.47225 
Q 362.355039 98.47225 362.317539 98.441 
Q 362.281602 98.40975 362.281602 98.380062 
L 362.281602 95.039437 
Q 362.281602 95.016 362.312852 94.989437 
Q 362.345664 94.961312 362.380039 94.961312 
L 362.409727 94.961312 
Q 363.083164 95.28475 363.839414 95.28475 
Q 364.581602 95.28475 365.270664 94.961312 
L 365.300352 94.961312 
Q 365.334727 94.961312 365.362852 94.986312 
Q 365.392539 95.011313 365.392539 95.039437 
L 365.392539 95.133187 
Q 365.392539 95.181625 365.373789 95.181625 
Q 365.031602 95.636313 364.515977 95.891 
Q 364.000352 96.144125 363.448789 96.144125 
Q 363.048789 96.144125 362.628477 96.031625 
L 362.628477 97.920687 
Q 362.961289 97.651938 363.222227 97.537875 
Q 363.483164 97.42225 363.889414 97.42225 
Q 364.440977 97.42225 364.876914 97.741 
Q 365.314414 98.058188 365.548789 98.569125 
Q 365.783164 99.0785 365.783164 99.60975 
Q 365.783164 100.211312 365.487852 100.723812 
Q 365.192539 101.236312 364.684727 101.539437 
Q 364.176914 101.842562 363.581602 101.842562 
Q 363.087852 101.842562 362.675352 101.589438 
Q 362.262852 101.33475 362.025352 100.905062 
Q 361.789414 100.475375 361.789414 99.991 
Q 361.789414 99.766 361.934727 99.625375 
Q 362.081602 99.483187 362.301914 99.483187 
Q 362.522227 99.483187 362.670664 99.6285 
Q 362.819102 99.77225 362.819102 99.991 
Q 362.819102 100.206625 362.670664 100.355063 
Q 362.522227 100.5035 362.301914 100.5035 
Q 362.267539 100.5035 362.223789 100.49725 
Q 362.180039 100.489437 362.159727 100.48475 
z
M 367.281602 103.423812 
Q 367.281602 103.380062 367.320664 103.341 
Q 367.683164 102.994125 367.883164 102.539437 
Q 368.083164 102.086312 368.083164 101.583187 
L 368.083164 101.461312 
Q 367.922227 101.62225 367.683164 101.62225 
Q 367.453477 101.62225 367.292539 101.461312 
Q 367.131602 101.300375 367.131602 101.070687 
Q 367.131602 100.836312 367.292539 100.680062 
Q 367.453477 100.523812 367.683164 100.523812 
Q 368.039414 100.523812 368.190977 100.8535 
Q 368.342539 101.183188 368.342539 101.583187 
Q 368.342539 102.139437 368.119102 102.639437 
Q 367.897227 103.141 367.492539 103.541 
Q 367.453477 103.561312 367.428477 103.561312 
Q 367.380039 103.561312 367.330039 103.516 
Q 367.281602 103.47225 367.281602 103.423812 
z
M 371.766953 100.850375 
Q 372.001328 101.192562 372.396641 101.358187 
Q 372.793516 101.523812 373.246641 101.523812 
Q 373.827891 101.523812 374.071641 101.0285 
Q 374.316953 100.533187 374.316953 99.9035 
Q 374.316953 99.620688 374.265391 99.337875 
Q 374.213828 99.0535 374.091953 98.80975 
Q 373.970078 98.566 373.757578 98.419125 
Q 373.545078 98.27225 373.237266 98.27225 
L 372.573203 98.27225 
Q 372.485703 98.27225 372.485703 98.180062 
L 372.485703 98.092562 
Q 372.485703 98.014437 372.573203 98.014437 
L 373.124766 97.969125 
Q 373.476328 97.969125 373.707578 97.706625 
Q 373.940391 97.442562 374.048203 97.064437 
Q 374.156016 96.686312 374.156016 96.344125 
Q 374.156016 95.866 373.931016 95.558188 
Q 373.706016 95.250375 373.246641 95.250375 
Q 372.866953 95.250375 372.520078 95.394125 
Q 372.173203 95.537875 371.968516 95.831625 
Q 371.987266 95.826937 372.001328 95.823813 
Q 372.016953 95.820687 372.035703 95.820687 
Q 372.260703 95.820687 372.412266 95.976937 
Q 372.563828 96.133187 372.563828 96.3535 
Q 372.563828 96.569125 372.412266 96.725375 
Q 372.260703 96.881625 372.035703 96.881625 
Q 371.816953 96.881625 371.660703 96.725375 
Q 371.504453 96.569125 371.504453 96.3535 
Q 371.504453 95.923812 371.762266 95.606625 
Q 372.021641 95.289437 372.429453 95.125375 
Q 372.837266 94.961312 373.246641 94.961312 
Q 373.549766 94.961312 373.885703 95.051937 
Q 374.223203 95.142562 374.496641 95.311312 
Q 374.770078 95.480063 374.943516 95.744125 
Q 375.116953 96.006625 375.116953 96.344125 
Q 375.116953 96.764437 374.929453 97.120688 
Q 374.741953 97.476937 374.413828 97.736312 
Q 374.087266 97.994125 373.696641 98.120688 
Q 374.131016 98.2035 374.521641 98.448813 
Q 374.912266 98.692562 375.148203 99.073813 
Q 375.385703 99.4535 375.385703 99.894125 
Q 375.385703 100.445687 375.082578 100.892562 
Q 374.781016 101.339438 374.287266 101.591 
Q 373.793516 101.842562 373.246641 101.842562 
Q 372.777891 101.842562 372.306016 101.662875 
Q 371.835703 101.48475 371.535703 101.1285 
Q 371.235703 100.77225 371.235703 100.273812 
Q 371.235703 100.025375 371.401328 99.85975 
Q 371.566953 99.694125 371.816953 99.694125 
Q 371.977891 99.694125 372.112266 99.769125 
Q 372.246641 99.844125 372.321641 99.981625 
Q 372.398203 100.117562 372.398203 100.273812 
Q 372.398203 100.519125 372.226328 100.68475 
Q 372.056016 100.850375 371.816953 100.850375 
L 371.766953 100.850375 
z
M 376.465391 104.12225 
Q 376.376328 104.12225 376.376328 104.03475 
Q 376.376328 103.991 376.396641 103.970687 
Q 378.106016 102.300375 378.106016 99.12225 
Q 378.106016 95.944125 376.415391 94.292563 
Q 376.376328 94.269125 376.376328 94.20975 
Q 376.376328 94.175375 376.402891 94.148812 
Q 376.431016 94.12225 376.465391 94.12225 
L 376.557578 94.12225 
Q 376.587266 94.12225 376.606016 94.141 
Q 377.324766 94.708187 377.802891 95.519125 
Q 378.281016 96.3285 378.502891 97.24725 
Q 378.726328 98.164437 378.726328 99.12225 
Q 378.726328 99.830062 378.606016 100.516 
Q 378.485703 101.201937 378.224766 101.867562 
Q 377.963828 102.53475 377.563828 103.098812 
Q 377.163828 103.662875 376.606016 104.1035 
Q 376.587266 104.12225 376.557578 104.12225 
L 376.465391 104.12225 
z
" style="fill: #1f77b4; stroke: #ffffff; stroke-width: 3"/>
    <path d="M 342.279404 95.1535 
Q 342.201279 95.1535 342.149717 95.095687 
Q 342.099717 95.036312 342.099717 94.951937 
Q 342.099717 94.880062 342.149717 94.819125 
Q 342.201279 94.756625 342.279404 94.756625 
L 345.820029 94.756625 
Q 345.555967 94.400375 345.555967 94.166 
Q 345.555967 94.0785 345.616904 94.02225 
Q 345.677842 93.966 345.755967 93.966 
Q 345.923154 93.966 345.955967 94.12225 
Q 346.054404 94.551937 346.430967 94.786312 
Q 346.527842 94.850375 346.527842 94.951937 
Q 346.527842 95.075375 346.430967 95.123812 
Q 345.863779 95.406625 345.516904 95.875375 
Q 345.477842 95.944125 345.365342 95.944125 
Q 345.291904 95.944125 345.227842 95.886313 
Q 345.165342 95.826937 345.165342 95.744125 
Q 345.165342 95.562875 345.649717 95.1535 
L 342.279404 95.1535 
z
M 342.35875 100.494125 
Q 342.35875 100.269125 342.411875 100.001937 
Q 342.466562 99.733187 342.519687 99.55975 
Q 342.574375 99.386313 342.765 98.883187 
Q 342.955625 98.380062 342.960312 98.35975 
Q 343.091562 97.994125 343.091562 97.75975 
Q 343.091562 97.461312 342.872812 97.461312 
Q 342.475937 97.461312 342.219687 97.869125 
Q 341.963437 98.276938 341.841562 98.780062 
Q 341.822812 98.844125 341.75875 98.844125 
L 341.641562 98.844125 
Q 341.55875 98.844125 341.55875 98.750375 
L 341.55875 98.72225 
Q 341.719687 98.125375 342.050937 97.664437 
Q 342.38375 97.2035 342.891562 97.2035 
Q 343.247812 97.2035 343.494687 97.437875 
Q 343.741562 97.67225 343.741562 98.033187 
Q 343.741562 98.219125 343.65875 98.423812 
Q 343.463437 98.931625 343.350937 99.237875 
Q 343.238437 99.542563 343.143125 99.920687 
Q 343.047812 100.298812 343.047812 100.620688 
Q 343.047812 100.99725 343.22125 101.23475 
Q 343.394687 101.470687 343.760312 101.470687 
Q 344.454062 101.470687 345.010312 100.401938 
Q 345.186875 100.055062 345.343125 99.586312 
Q 345.499375 99.117562 345.499375 98.823813 
Q 345.499375 98.52225 345.400937 98.3535 
Q 345.304062 98.18475 345.147812 98.001937 
Q 344.991562 97.819125 344.991562 97.711312 
Q 344.991562 97.516 345.1525 97.355063 
Q 345.313437 97.194125 345.50875 97.194125 
Q 345.747812 97.194125 345.8525 97.414437 
Q 345.95875 97.633187 345.95875 97.911312 
Q 345.95875 98.242562 345.863437 98.701937 
Q 345.768125 99.161312 345.599375 99.655062 
Q 345.430625 100.14725 345.288437 100.430062 
Q 344.630625 101.73475 343.750937 101.73475 
Q 343.12125 101.73475 342.74 101.420687 
Q 342.35875 101.105063 342.35875 100.494125 
z
M 348.636289 100.294125 
Q 348.553477 100.294125 348.498789 100.231625 
Q 348.445664 100.167563 348.445664 100.094125 
Q 348.445664 100.011313 348.498789 99.9535 
Q 348.553477 99.894125 348.636289 99.894125 
L 354.915977 99.894125 
Q 354.989414 99.894125 355.042539 99.9535 
Q 355.097227 100.011313 355.097227 100.094125 
Q 355.097227 100.167563 355.042539 100.231625 
Q 354.989414 100.294125 354.915977 100.294125 
L 348.636289 100.294125 
z
M 348.636289 98.350375 
Q 348.553477 98.350375 348.498789 98.292563 
Q 348.445664 98.233187 348.445664 98.150375 
Q 348.445664 98.076937 348.498789 98.014437 
Q 348.553477 97.950375 348.636289 97.950375 
L 354.915977 97.950375 
Q 354.989414 97.950375 355.042539 98.014437 
Q 355.097227 98.076937 355.097227 98.150375 
Q 355.097227 98.233187 355.042539 98.292563 
Q 354.989414 98.350375 354.915977 98.350375 
L 348.636289 98.350375 
z
M 360.509141 104.1035 
Q 359.952891 103.662875 359.549766 103.094125 
Q 359.148203 102.525375 358.890391 101.880062 
Q 358.634141 101.236312 358.507578 100.533187 
Q 358.381016 99.830062 358.381016 99.12225 
Q 358.381016 98.405062 358.507578 97.701937 
Q 358.634141 96.998812 358.895078 96.348812 
Q 359.157578 95.698813 359.562266 95.133187 
Q 359.968516 94.566 360.509141 94.141 
Q 360.509141 94.12225 360.559141 94.12225 
L 360.651328 94.12225 
Q 360.681016 94.12225 360.704453 94.148812 
Q 360.729453 94.175375 360.729453 94.20975 
Q 360.729453 94.2535 360.710703 94.273812 
Q 360.221641 94.751937 359.896641 95.298812 
Q 359.571641 95.845687 359.373203 96.464438 
Q 359.176328 97.081625 359.088828 97.744125 
Q 359.001328 98.405062 359.001328 99.12225 
Q 359.001328 102.300375 360.699766 103.951937 
Q 360.729453 103.980063 360.729453 104.03475 
Q 360.729453 104.058188 360.702891 104.089438 
Q 360.676328 104.12225 360.651328 104.12225 
L 360.559141 104.12225 
Q 360.509141 104.12225 360.509141 104.1035 
z
M 362.159727 100.48475 
Q 362.262852 100.776938 362.475352 101.017562 
Q 362.687852 101.256625 362.978477 101.391 
Q 363.269102 101.523812 363.581602 101.523812 
Q 364.303477 101.523812 364.576914 100.962875 
Q 364.850352 100.401938 364.850352 99.600375 
Q 364.850352 99.2535 364.837852 99.017562 
Q 364.826914 98.780062 364.772227 98.561312 
Q 364.680039 98.20975 364.447227 97.945687 
Q 364.215977 97.681625 363.878477 97.681625 
Q 363.542539 97.681625 363.300352 97.78475 
Q 363.058164 97.886313 362.906602 98.023812 
Q 362.756602 98.15975 362.639414 98.311312 
Q 362.522227 98.462875 362.492539 98.47225 
L 362.380039 98.47225 
Q 362.355039 98.47225 362.317539 98.441 
Q 362.281602 98.40975 362.281602 98.380062 
L 362.281602 95.039437 
Q 362.281602 95.016 362.312852 94.989437 
Q 362.345664 94.961312 362.380039 94.961312 
L 362.409727 94.961312 
Q 363.083164 95.28475 363.839414 95.28475 
Q 364.581602 95.28475 365.270664 94.961312 
L 365.300352 94.961312 
Q 365.334727 94.961312 365.362852 94.986312 
Q 365.392539 95.011313 365.392539 95.039437 
L 365.392539 95.133187 
Q 365.392539 95.181625 365.373789 95.181625 
Q 365.031602 95.636313 364.515977 95.891 
Q 364.000352 96.144125 363.448789 96.144125 
Q 363.048789 96.144125 362.628477 96.031625 
L 362.628477 97.920687 
Q 362.961289 97.651938 363.222227 97.537875 
Q 363.483164 97.42225 363.889414 97.42225 
Q 364.440977 97.42225 364.876914 97.741 
Q 365.314414 98.058188 365.548789 98.569125 
Q 365.783164 99.0785 365.783164 99.60975 
Q 365.783164 100.211312 365.487852 100.723812 
Q 365.192539 101.236312 364.684727 101.539437 
Q 364.176914 101.842562 363.581602 101.842562 
Q 363.087852 101.842562 362.675352 101.589438 
Q 362.262852 101.33475 362.025352 100.905062 
Q 361.789414 100.475375 361.789414 99.991 
Q 361.789414 99.766 361.934727 99.625375 
Q 362.081602 99.483187 362.301914 99.483187 
Q 362.522227 99.483187 362.670664 99.6285 
Q 362.819102 99.77225 362.819102 99.991 
Q 362.819102 100.206625 362.670664 100.355063 
Q 362.522227 100.5035 362.301914 100.5035 
Q 362.267539 100.5035 362.223789 100.49725 
Q 362.180039 100.489437 362.159727 100.48475 
z
M 367.281602 103.423812 
Q 367.281602 103.380062 367.320664 103.341 
Q 367.683164 102.994125 367.883164 102.539437 
Q 368.083164 102.086312 368.083164 101.583187 
L 368.083164 101.461312 
Q 367.922227 101.62225 367.683164 101.62225 
Q 367.453477 101.62225 367.292539 101.461312 
Q 367.131602 101.300375 367.131602 101.070687 
Q 367.131602 100.836312 367.292539 100.680062 
Q 367.453477 100.523812 367.683164 100.523812 
Q 368.039414 100.523812 368.190977 100.8535 
Q 368.342539 101.183188 368.342539 101.583187 
Q 368.342539 102.139437 368.119102 102.639437 
Q 367.897227 103.141 367.492539 103.541 
Q 367.453477 103.561312 367.428477 103.561312 
Q 367.380039 103.561312 367.330039 103.516 
Q 367.281602 103.47225 367.281602 103.423812 
z
M 371.766953 100.850375 
Q 372.001328 101.192562 372.396641 101.358187 
Q 372.793516 101.523812 373.246641 101.523812 
Q 373.827891 101.523812 374.071641 101.0285 
Q 374.316953 100.533187 374.316953 99.9035 
Q 374.316953 99.620688 374.265391 99.337875 
Q 374.213828 99.0535 374.091953 98.80975 
Q 373.970078 98.566 373.757578 98.419125 
Q 373.545078 98.27225 373.237266 98.27225 
L 372.573203 98.27225 
Q 372.485703 98.27225 372.485703 98.180062 
L 372.485703 98.092562 
Q 372.485703 98.014437 372.573203 98.014437 
L 373.124766 97.969125 
Q 373.476328 97.969125 373.707578 97.706625 
Q 373.940391 97.442562 374.048203 97.064437 
Q 374.156016 96.686312 374.156016 96.344125 
Q 374.156016 95.866 373.931016 95.558188 
Q 373.706016 95.250375 373.246641 95.250375 
Q 372.866953 95.250375 372.520078 95.394125 
Q 372.173203 95.537875 371.968516 95.831625 
Q 371.987266 95.826937 372.001328 95.823813 
Q 372.016953 95.820687 372.035703 95.820687 
Q 372.260703 95.820687 372.412266 95.976937 
Q 372.563828 96.133187 372.563828 96.3535 
Q 372.563828 96.569125 372.412266 96.725375 
Q 372.260703 96.881625 372.035703 96.881625 
Q 371.816953 96.881625 371.660703 96.725375 
Q 371.504453 96.569125 371.504453 96.3535 
Q 371.504453 95.923812 371.762266 95.606625 
Q 372.021641 95.289437 372.429453 95.125375 
Q 372.837266 94.961312 373.246641 94.961312 
Q 373.549766 94.961312 373.885703 95.051937 
Q 374.223203 95.142562 374.496641 95.311312 
Q 374.770078 95.480063 374.943516 95.744125 
Q 375.116953 96.006625 375.116953 96.344125 
Q 375.116953 96.764437 374.929453 97.120688 
Q 374.741953 97.476937 374.413828 97.736312 
Q 374.087266 97.994125 373.696641 98.120688 
Q 374.131016 98.2035 374.521641 98.448813 
Q 374.912266 98.692562 375.148203 99.073813 
Q 375.385703 99.4535 375.385703 99.894125 
Q 375.385703 100.445687 375.082578 100.892562 
Q 374.781016 101.339438 374.287266 101.591 
Q 373.793516 101.842562 373.246641 101.842562 
Q 372.777891 101.842562 372.306016 101.662875 
Q 371.835703 101.48475 371.535703 101.1285 
Q 371.235703 100.77225 371.235703 100.273812 
Q 371.235703 100.025375 371.401328 99.85975 
Q 371.566953 99.694125 371.816953 99.694125 
Q 371.977891 99.694125 372.112266 99.769125 
Q 372.246641 99.844125 372.321641 99.981625 
Q 372.398203 100.117562 372.398203 100.273812 
Q 372.398203 100.519125 372.226328 100.68475 
Q 372.056016 100.850375 371.816953 100.850375 
L 371.766953 100.850375 
z
M 376.465391 104.12225 
Q 376.376328 104.12225 376.376328 104.03475 
Q 376.376328 103.991 376.396641 103.970687 
Q 378.106016 102.300375 378.106016 99.12225 
Q 378.106016 95.944125 376.415391 94.292563 
Q 376.376328 94.269125 376.376328 94.20975 
Q 376.376328 94.175375 376.402891 94.148812 
Q 376.431016 94.12225 376.465391 94.12225 
L 376.557578 94.12225 
Q 376.587266 94.12225 376.606016 94.141 
Q 377.324766 94.708187 377.802891 95.519125 
Q 378.281016 96.3285 378.502891 97.24725 
Q 378.726328 98.164437 378.726328 99.12225 
Q 378.726328 99.830062 378.606016 100.516 
Q 378.485703 101.201937 378.224766 101.867562 
Q 377.963828 102.53475 377.563828 103.098812 
Q 377.163828 103.662875 376.606016 104.1035 
Q 376.587266 104.12225 376.557578 104.12225 
L 376.465391 104.12225 
z
" style="fill: #1f77b4"/>
   </g>
   <g id="Quiver_1">
    <path d="M 264.443428 165.099047 
L 353.718172 111.5342 
L 351.909977 110.38353 
L 360.54 108 
L 354.375698 114.493065 
L 354.211316 112.356107 
L 264.936572 165.920953 
L 264.443428 165.099047 
" clip-path="url(#pa22318580c)"/>
   </g>
  </g>
 </g>
 <defs>
  <clipPath id="p8c2e16217e">
   <rect x="15.75" y="12.15" width="191.7" height="191.7"/>
  </clipPath>
  <clipPath id="pa22318580c">
   <rect x="226.35" y="12.15" width="191.7" height="191.7"/>
  </clipPath>
 </defs>
</svg>
